<?xml version="1.0" standalone="no"?>
<!DOCTYPE svg PUBLIC "-//W3C//DTD SVG 20010904//EN" "http://www.w3.org/TR/2001/REC-SVG-20010904/DTD/svg10.dtd">
<svg xmlns="http://www.w3.org/2000/svg" version="1.0" width="50.000000pt" height="50.000000pt" viewBox="0 0 882.000000 870.000000" preserveAspectRatio="xMidYMid meet">
<metadata>
Created by potrace 1.16, written by Peter Selinger 2001-2019
<meta name="Producer" content="Online-Convert"/></metadata>
<g transform="translate(0.000000,870.000000) scale(0.100000,-0.100000)" fill="#000000" stroke="none">
<path d="M0 4350 l0 -4350 4410 0 4410 0 0 4350 0 4350 -4410 0 -4410 0 0 -4350z m4960 4125 c944 -114 1811 -532 2461 -1187 645 -648 1060 -1489 1178 -2387 98 -736 14 -1457 -246 -2114 -261 -663 -701 -1260 -1257 -1705 -618 -495 -1371 -805 -2171 -894 -158 -17 -688 -17 -855 0 -963 101 -1844 522 -2540 1212 -318 315 -625 750 -812 1148 -293 624 -429 1317 -389 1988 32 547 141 1014 349 1490 481 1099 1485 1979 2632 2307 268 77 590 136 856 156 174 14 633 5 794 -14z"/>
<path d="M4364 8482 c3 -5 -22 -6 -55 -4 -183 13 -658 -62 -998 -158 -280 -79 -764 -282 -745 -312 4 -7 3 -8 -5 -4 -6 4 -42 -9 -79 -29 -80 -44 -88 -50 -71 -60 8 -6 10 -4 4 6 -5 8 -4 10 0 6 5 -4 10 -14 11 -23 2 -13 0 -14 -20 -1 -19 13 -25 13 -49 0 -15 -7 -25 -18 -22 -24 4 -5 13 -5 26 1 21 12 28 -3 7 -16 -8 -5 -6 -10 8 -15 18 -7 18 -8 -2 -8 -23 -1 -39 -37 -22 -48 7 -3 8 -1 4 5 -4 7 -1 12 8 12 8 0 17 -4 21 -9 3 -5 18 -8 33 -5 21 3 23 2 12 -6 -13 -9 -13 -11 0 -20 12 -8 11 -10 -7 -10 -17 0 -21 4 -16 18 3 9 3 14 -2 10 -4 -4 -15 -2 -23 5 -13 10 -14 9 -3 -10 10 -19 9 -22 -3 -17 -8 3 -27 -6 -43 -20 -15 -15 -34 -24 -42 -21 -9 4 -11 0 -7 -11 3 -8 6 -20 6 -25 0 -5 5 -9 11 -9 6 0 9 7 5 15 -3 8 -1 15 5 15 5 0 12 -7 15 -15 4 -8 11 -12 18 -9 6 3 0 -4 -14 -15 -26 -22 -45 -28 -35 -11 3 6 1 10 -5 10 -7 0 -10 -6 -7 -14 6 -15 -36 -49 -60 -49 -6 0 -11 -5 -10 -10 1 -5 -4 -12 -11 -14 -8 -3 -10 1 -5 14 7 17 6 17 -11 1 -21 -22 -40 -23 -32 -3 3 8 2 14 -2 14 -4 -1 -9 0 -12 1 -3 1 -12 3 -20 5 -8 2 -24 6 -35 11 -16 6 -15 3 5 -13 13 -11 29 -19 36 -16 6 2 11 -3 11 -12 0 -8 -4 -15 -9 -15 -5 0 -4 -10 3 -22 10 -18 9 -20 -5 -15 -9 4 -15 2 -13 -5 1 -6 -3 -12 -10 -15 -7 -3 -9 3 -6 18 5 18 3 21 -11 16 -13 -5 -19 -1 -23 13 -7 25 -18 26 -20 1 -1 -13 7 -21 25 -26 25 -6 26 -7 7 -18 -27 -15 -49 -37 -36 -37 5 0 17 7 26 16 9 9 18 14 21 12 2 -3 -30 -33 -73 -67 -57 -46 -79 -58 -81 -47 -2 9 -13 17 -25 17 -17 1 -18 2 -5 6 10 2 19 10 20 16 0 7 2 17 2 22 1 6 5 15 9 21 4 7 0 15 -9 18 -9 4 -14 9 -11 12 3 3 19 -4 35 -16 19 -14 35 -19 44 -14 7 4 2 -4 -12 -19 -14 -15 -32 -27 -40 -27 -11 0 -11 -3 3 -11 15 -9 25 -6 50 17 18 16 33 29 35 30 1 1 0 8 -4 17 -3 9 -11 14 -18 11 -7 -3 -13 2 -13 10 0 8 4 13 9 10 4 -3 8 0 8 5 0 14 -17 14 -25 1 -6 -10 -45 -7 -65 5 -6 4 -5 16 5 35 27 52 -3 44 -83 -23 -54 -45 -76 -70 -74 -83 3 -15 1 -16 -11 -6 -28 24 -409 -373 -588 -613 -84 -112 -143 -200 -123 -184 10 8 32 14 48 13 15 -2 40 5 55 14 25 16 26 16 11 -3 -11 -14 -12 -17 -1 -11 9 6 12 5 9 -5 -3 -8 -11 -13 -17 -11 -7 1 -10 -2 -7 -7 4 -5 2 -12 -4 -16 -5 -3 -10 -11 -10 -18 0 -6 7 -2 15 9 13 17 14 17 15 2 0 -27 -20 -32 -40 -10 -10 11 -16 22 -13 26 3 3 -5 3 -17 1 -28 -5 -34 -11 -25 -24 10 -18 25 -12 18 7 -6 15 -5 15 10 3 9 -7 14 -17 11 -22 -3 -5 0 -9 6 -9 6 0 9 -4 6 -8 -3 -5 8 -6 25 -4 22 3 29 1 27 -9 -2 -8 -9 -17 -17 -20 -12 -5 -12 -7 1 -12 12 -4 19 3 27 24 6 18 6 27 1 24 -12 -8 -13 21 -1 62 6 20 5 35 -2 42 -14 14 -4 23 16 15 13 -4 14 -10 7 -24 -13 -24 -14 -52 -2 -32 5 7 16 10 25 6 10 -3 17 -1 17 5 0 6 -7 11 -15 11 -9 0 -12 6 -9 15 6 15 -12 38 -34 42 -6 2 -12 -2 -12 -8 0 -5 -5 -7 -12 -3 -6 4 -8 3 -5 -3 7 -11 -42 -38 -51 -28 -3 2 -12 -1 -21 -8 -14 -11 -14 -10 -2 6 7 9 19 17 27 17 26 0 44 29 34 55 -7 19 -6 25 4 25 8 0 17 -6 20 -12 3 -7 3 -1 1 15 -2 16 0 25 6 22 5 -4 7 -11 4 -16 -4 -5 1 -9 10 -9 11 0 15 5 11 15 -3 8 -1 15 4 15 6 0 10 -7 10 -15 0 -8 4 -15 8 -15 5 0 7 13 4 30 -4 30 15 60 40 60 10 0 9 3 -2 11 -13 9 -12 10 3 5 23 -7 57 23 57 52 0 13 4 21 9 17 6 -3 14 2 19 11 6 11 11 13 16 5 10 -16 26 -14 26 4 0 9 -6 15 -13 14 -29 -4 -37 2 -35 27 3 29 28 57 28 31 0 -9 -4 -19 -10 -22 -5 -3 -10 -12 -10 -18 1 -7 10 -1 20 12 11 13 20 19 20 13 0 -5 11 -9 25 -9 13 0 22 4 19 9 -3 5 -11 7 -17 5 -12 -4 -47 23 -47 36 0 4 4 6 9 2 6 -3 14 3 20 12 9 15 12 16 20 3 5 -8 7 -18 4 -24 -3 -5 -1 -6 5 -2 5 3 13 0 16 -6 3 -7 4 -4 3 7 -1 12 5 21 18 23 17 4 18 2 6 -12 -7 -9 -9 -16 -3 -16 5 0 13 7 16 16 3 8 10 13 15 10 5 -3 11 1 14 9 4 10 1 12 -10 8 -11 -4 -14 -3 -9 5 9 15 -45 -7 -56 -23 -4 -5 -7 6 -5 25 1 19 7 33 12 30 6 -3 9 -8 8 -11 -1 -3 4 -6 11 -6 7 0 13 6 13 13 0 7 -3 13 -6 12 -19 -2 -22 4 -11 17 9 11 16 12 25 5 10 -8 15 -6 20 9 3 12 11 21 18 21 8 0 8 3 -1 12 -9 9 -5 17 16 37 24 22 36 26 72 22 6 0 10 -6 10 -12 0 -7 -12 -10 -28 -7 -17 2 -29 -1 -29 -7 0 -6 12 -9 29 -7 16 3 28 0 28 -7 0 -6 5 -11 11 -11 5 0 7 5 3 12 -4 7 -3 8 5 4 6 -4 9 -12 6 -17 -3 -5 1 -6 9 -3 9 4 16 1 16 -6 0 -8 -9 -10 -25 -6 -16 4 -25 2 -25 -5 0 -7 -8 -3 -18 8 -14 17 -19 18 -30 7 -18 -19 -15 -27 8 -21 21 5 22 2 22 -48 0 -16 4 -38 9 -47 6 -10 5 -19 -1 -23 -5 -3 -10 2 -10 12 0 15 -2 16 -10 3 -6 -9 -5 -17 2 -21 7 -4 7 -9 -1 -13 -11 -7 -15 6 -12 33 2 7 -3 10 -9 6 -6 -4 -9 -13 -6 -21 3 -8 1 -14 -4 -14 -6 0 -10 -8 -9 -17 0 -11 3 -13 6 -5 2 6 9 12 14 12 6 0 5 -8 -1 -20 -15 -29 -39 -15 -35 21 2 16 1 29 -3 29 -13 -1 -46 -30 -33 -30 7 0 9 -4 6 -10 -3 -5 -1 -10 5 -10 6 0 8 -5 5 -10 -4 -6 -3 -10 2 -9 19 3 34 -2 29 -9 -13 -21 -71 1 -62 24 3 8 0 11 -10 7 -7 -3 -14 -11 -14 -19 0 -8 -6 -14 -14 -14 -21 0 -30 -20 -17 -33 9 -9 11 -8 6 4 -4 10 0 16 9 16 8 0 13 -4 10 -8 -2 -4 1 -11 7 -15 8 -4 9 -3 5 4 -4 7 -2 12 4 12 6 0 8 5 5 10 -3 6 -2 10 4 10 21 0 3 -73 -26 -102 -27 -26 -30 -27 -48 -13 -20 16 -20 16 1 6 25 -12 38 -3 23 15 -8 9 -5 11 10 7 14 -3 23 0 27 11 8 22 -3 33 -18 18 -7 -7 -19 -12 -27 -12 -14 0 -14 1 -1 10 12 8 9 10 -12 10 -15 0 -30 -4 -33 -10 -3 -5 2 -10 12 -10 14 0 15 -2 5 -9 -8 -4 -12 -19 -10 -32 2 -20 -1 -24 -25 -24 -19 1 -27 -4 -25 -15 1 -8 -1 -21 -6 -29 -6 -10 -5 -12 2 -7 7 4 12 3 12 -3 0 -17 -20 -23 -35 -11 -11 9 -13 6 -10 -17 5 -47 -15 -73 -29 -37 -4 12 -2 15 9 10 23 -8 18 12 -6 24 -20 11 -20 12 -2 26 16 13 16 13 1 8 -11 -4 -18 -1 -18 6 0 6 -5 8 -11 4 -6 -3 -7 -9 -3 -13 12 -8 14 -52 3 -45 -5 3 -9 1 -9 -5 0 -5 -3 -16 -6 -25 -4 -11 2 -19 21 -26 24 -9 26 -12 14 -28 -11 -13 -9 -13 9 2 17 15 19 22 10 28 -10 6 -8 8 5 8 23 0 21 -9 -12 -53 -32 -42 -39 -45 -53 -25 -5 8 -6 0 -3 -22 5 -32 4 -33 -9 -17 -8 10 -17 14 -20 9 -3 -6 1 -13 10 -16 14 -5 13 -10 -5 -39 -12 -19 -28 -31 -38 -30 -10 1 -12 0 -5 -3 6 -3 12 -10 12 -15 0 -6 -8 -5 -20 1 -14 7 -26 8 -39 0 -26 -13 -27 -13 -28 10 -1 11 2 18 7 15 4 -3 10 2 14 10 3 8 0 14 -7 12 -7 -1 -11 4 -10 11 2 6 -1 12 -6 12 -5 0 -8 -16 -7 -35 3 -34 -8 -48 -17 -22 -2 6 -4 -1 -4 -18 0 -16 2 -25 4 -18 5 13 33 6 33 -7 0 -5 -8 -11 -18 -13 -15 -4 -15 -5 1 -6 11 -1 21 7 24 19 3 11 12 20 20 20 11 0 11 -4 2 -22 l-11 -23 21 23 c30 30 36 28 15 -7 -13 -22 -23 -28 -45 -26 -16 1 -29 -2 -29 -9 0 -6 -4 -4 -10 4 -5 8 -12 12 -15 8 -8 -8 25 -39 35 -33 12 7 23 -13 14 -27 -5 -8 -11 -6 -20 7 -9 12 -19 15 -31 10 -25 -11 -53 -13 -53 -4 0 4 -9 5 -20 2 -23 -6 -21 -13 6 -17 19 -3 28 -32 13 -42 -14 -8 0 -24 16 -17 8 3 15 0 15 -6 0 -6 -3 -10 -7 -10 -22 4 -33 -3 -33 -18 0 -11 3 -14 8 -7 4 6 15 10 25 8 15 -2 23 8 15 19 -2 2 3 11 10 20 9 10 10 17 2 22 -5 3 -10 1 -10 -6 0 -7 -3 -9 -6 -6 -4 4 1 18 10 32 15 23 19 24 32 11 13 -14 12 -21 -14 -66 -16 -28 -33 -52 -38 -53 -5 -1 -8 -5 -7 -9 2 -4 -30 -74 -71 -155 -40 -82 -86 -178 -101 -216 -15 -37 -30 -66 -32 -63 -2 2 2 16 9 30 10 23 9 29 -3 37 -12 7 -11 9 3 9 17 0 38 28 38 51 0 6 -8 9 -19 6 -14 -3 -18 -1 -14 9 6 17 19 18 29 3 5 -8 10 -6 16 5 5 9 6 21 3 26 -3 6 -1 10 6 10 7 0 10 3 6 6 -3 4 1 13 9 21 8 9 13 18 10 20 -8 8 -32 -20 -40 -45 -4 -12 -16 -22 -26 -22 -10 0 -22 -9 -25 -20 -3 -11 -11 -20 -16 -20 -6 0 -7 -5 -4 -10 4 -6 11 -8 16 -5 5 3 6 -1 3 -9 -5 -12 -8 -12 -25 2 -20 17 -20 17 1 31 22 15 28 36 7 28 -22 -8 -39 9 -39 37 0 15 -4 29 -9 32 -5 3 -9 10 -9 15 0 6 4 8 9 4 5 -3 13 0 17 6 4 8 3 9 -4 5 -7 -4 -12 -2 -12 4 0 6 7 13 15 16 8 4 12 10 9 15 -8 14 9 34 31 34 11 0 19 6 18 13 -2 6 1 12 5 12 5 0 9 -14 10 -30 0 -17 -3 -28 -8 -25 -5 3 -11 1 -14 -4 -7 -11 13 -9 32 2 6 5 18 5 25 2 6 -4 3 1 -7 9 -11 9 -17 16 -13 16 4 0 3 10 -2 23 -8 20 -6 23 17 22 14 0 27 -6 30 -14 3 -8 0 -11 -6 -7 -14 8 -24 -8 -16 -28 3 -9 11 -13 17 -9 7 4 2 -6 -11 -21 -12 -16 -19 -33 -15 -39 3 -6 1 -7 -5 -3 -9 5 -9 13 -1 29 9 17 9 19 0 11 -17 -16 -21 -47 -7 -56 18 -13 26 -9 26 12 0 10 8 24 17 29 10 6 14 11 9 11 -5 0 -3 6 3 14 8 10 9 16 1 21 -13 8 -13 25 1 25 5 0 8 -4 4 -9 -3 -5 -1 -13 5 -16 8 -5 7 -11 -1 -21 -6 -8 -8 -14 -4 -14 4 0 2 -6 -4 -13 -6 -8 -8 -17 -4 -20 8 -9 42 47 47 76 5 30 -11 57 -32 56 -16 -1 -16 -2 0 -6 10 -2 18 -11 18 -20 0 -12 -8 -9 -34 11 -24 18 -36 22 -40 13 -3 -6 -3 2 -1 18 5 42 5 43 15 18 10 -24 60 -34 60 -12 0 7 11 9 28 5 24 -5 24 -4 -6 9 -22 11 -32 22 -32 38 0 18 2 19 10 7 7 -11 10 -11 10 -2 0 7 5 10 10 7 8 -5 7 -12 -2 -23 -11 -13 -11 -14 2 -10 18 6 21 54 3 51 -7 -2 -10 4 -7 12 4 10 0 15 -15 15 -21 0 -26 12 -21 55 1 11 6 25 11 30 7 7 8 4 3 -8 -5 -14 -2 -16 12 -11 31 11 35 15 27 27 -15 25 -11 53 8 54 12 1 17 -3 13 -9 -4 -7 -2 -8 4 -4 6 4 8 14 5 22 -3 9 -2 19 3 23 5 3 15 19 22 35 11 24 15 27 23 15 6 -10 9 -10 9 -1 0 7 -6 15 -14 18 -8 3 -12 12 -9 20 3 8 9 12 13 9 5 -3 11 -1 14 4 4 5 -1 8 -9 7 -22 -3 -76 -87 -69 -108 2 -9 0 -19 -5 -23 -7 -3 -8 0 -5 9 26 69 -81 -105 -150 -242 -20 -40 -34 -78 -30 -84 4 -6 3 -8 -3 -5 -27 17 -214 -458 -287 -724 -112 -414 -152 -755 -143 -1227 5 -297 17 -421 62 -665 71 -384 229 -837 407 -1164 33 -62 65 -110 70 -107 6 4 5 10 -3 15 -11 7 -11 9 2 9 8 0 23 6 33 13 16 12 16 13 -3 13 -12 0 -21 -4 -21 -8 0 -4 -7 -8 -16 -8 -14 0 -14 3 -4 15 7 8 9 15 4 15 -4 0 1 6 11 14 17 12 15 13 -19 11 -31 -3 -35 -1 -25 11 10 12 9 13 -5 8 -16 -6 -21 4 -17 35 2 7 -2 10 -7 7 -6 -3 -12 1 -16 9 -6 18 7 27 28 19 19 -7 21 7 3 25 -10 10 -8 15 6 25 15 12 15 14 2 19 -8 4 -14 1 -12 -5 1 -7 -6 -14 -17 -16 -10 -2 -16 0 -13 5 4 5 0 10 -7 10 -8 0 -12 -7 -9 -16 3 -11 0 -10 -11 3 -12 15 -13 22 -4 27 20 13 18 38 -4 36 -18 -1 -18 -2 -1 -15 17 -13 17 -14 -2 -10 -14 2 -20 12 -21 31 -1 15 3 30 8 33 4 3 4 13 -2 23 -5 10 -6 21 -3 25 3 3 1 6 -5 6 -7 0 -12 5 -12 11 0 6 7 9 15 5 14 -5 19 5 16 32 -1 6 3 12 9 12 5 0 10 -6 10 -14 0 -10 7 -12 22 -8 17 4 20 2 15 -12 -6 -14 -3 -15 14 -5 20 10 20 10 4 -15 -13 -19 -15 -32 -8 -53 10 -27 10 -28 17 -5 9 28 22 28 36 1 7 -11 14 -18 17 -16 2 3 -1 15 -7 27 -8 16 -19 21 -35 18 -17 -4 -22 -1 -18 9 3 8 12 12 20 9 11 -4 13 0 8 17 -3 12 10 -7 29 -43 33 -62 51 -112 21 -60 -8 14 -14 19 -15 12 0 -7 -6 -10 -12 -7 -7 4 -5 0 4 -8 10 -8 15 -17 11 -20 -3 -4 3 -5 14 -3 15 3 25 -6 42 -42 13 -26 43 -82 68 -125 34 -58 43 -81 34 -90 -8 -8 -11 -5 -11 12 0 17 -4 21 -18 17 -13 -5 -21 1 -29 21 -11 28 -11 28 -10 -9 1 -26 6 -38 16 -38 12 0 11 -3 -2 -18 -14 -15 -15 -19 -2 -19 8 0 12 4 10 8 -3 3 4 9 15 12 15 4 22 -1 27 -21 l6 -26 9 23 c4 13 5 28 2 34 -4 7 -1 7 7 -1 7 -7 14 -29 14 -49 1 -26 6 -37 18 -39 11 -1 15 2 11 9 -5 9 -4 9 5 1 15 -13 4 -44 -16 -44 -8 0 -11 5 -8 10 3 6 2 10 -3 10 -8 0 -22 -22 -22 -34 0 -7 41 -3 45 5 4 5 13 3 21 -6 9 -8 19 -13 24 -10 5 3 8 -4 7 -15 -1 -21 -12 -26 -22 -10 -3 6 -12 10 -18 10 -8 0 -8 -3 -2 -8 6 -4 10 -27 10 -52 0 -40 -2 -45 -22 -44 -13 1 -20 -3 -17 -7 3 -5 10 -6 16 -3 6 4 9 1 6 -7 -3 -8 -15 -15 -29 -17 -19 -2 -21 -1 -9 7 8 6 13 11 10 12 -53 9 -54 10 -35 35 13 18 14 18 8 -5 -4 -17 -3 -22 6 -17 19 12 8 39 -17 41 -15 1 -21 -3 -18 -12 8 -21 -2 -15 -15 8 -8 15 -8 19 0 15 6 -4 11 -2 11 4 0 7 -9 14 -20 17 -11 3 -17 9 -15 14 3 4 -3 12 -12 18 -15 8 -15 10 -3 11 9 0 22 -6 29 -12 11 -11 11 -9 0 9 -7 12 -17 19 -22 16 -5 -3 -4 4 2 16 7 11 18 21 26 21 30 0 14 15 -17 17 -49 4 -58 6 -53 13 2 3 18 5 35 4 25 -2 29 0 19 12 -12 15 -24 19 -15 6 2 -4 -13 -8 -35 -8 -21 -1 -36 2 -34 7 3 4 -4 13 -16 19 -17 10 -20 9 -13 -2 107 -180 195 -308 207 -301 6 3 7 1 3 -5 -10 -17 229 -331 242 -317 3 3 11 0 18 -6 7 -5 14 -6 17 -2 9 14 -19 42 -44 47 -19 3 -24 9 -22 29 1 21 -2 25 -23 22 -15 -1 -24 3 -24 11 0 8 -4 14 -10 14 -5 0 -10 5 -10 11 0 6 9 8 20 4 15 -5 18 -3 14 9 -6 15 -23 17 -34 5 -3 -3 -12 2 -21 12 -15 15 -14 17 17 30 37 14 47 30 14 22 -12 -3 -20 0 -20 6 0 7 4 10 9 6 5 -3 12 -1 15 4 4 5 2 12 -3 15 -11 7 -34 -20 -27 -33 6 -10 -23 -25 -32 -16 -3 3 -2 5 3 5 4 0 2 7 -5 15 -7 8 -17 12 -24 8 -6 -3 -7 -2 -3 3 12 12 30 12 39 -1 4 -5 8 0 8 11 0 12 -7 24 -15 28 -8 3 -15 15 -15 26 0 25 -35 28 -48 4 -8 -15 -10 -15 -15 0 -4 9 -3 15 1 15 15 -2 52 14 52 22 0 5 10 3 22 -5 13 -8 27 -15 33 -15 5 0 11 -5 13 -11 3 -9 -1 -9 -16 -1 -14 7 -23 8 -27 1 -3 -5 3 -10 14 -10 14 0 19 -5 15 -15 -4 -8 -2 -15 4 -15 5 0 12 9 15 21 7 27 -31 99 -49 92 -14 -5 -18 7 -14 36 2 13 0 13 -16 0 -16 -13 -16 -12 -6 8 14 26 15 36 3 28 -5 -3 -13 0 -17 6 -4 8 -3 9 4 5 7 -4 12 -3 12 2 0 5 10 8 22 7 18 -1 23 -8 24 -33 1 -17 -1 -30 -5 -29 -3 1 -7 -1 -9 -5 -1 -5 0 -7 2 -5 8 5 46 -37 46 -52 0 -11 3 -12 8 -4 5 8 11 3 19 -13 6 -13 7 -24 2 -24 -5 0 -9 -8 -9 -17 0 -15 2 -14 19 3 10 11 14 22 8 25 -6 4 -5 9 1 13 12 7 36 -20 28 -33 -4 -5 -1 -13 5 -17 8 -5 9 -3 4 7 -8 12 -6 12 8 0 30 -24 18 -4 -67 113 -675 925 -905 2122 -626 3261 169 688 504 1289 1010 1809 632 650 1462 1060 2370 1171 182 23 579 31 766 16 958 -76 1818 -472 2494 -1150 580 -581 959 -1306 1095 -2093 48 -281 59 -414 59 -718 0 -303 -9 -423 -50 -670 -64 -386 -180 -739 -366 -1110 -419 -838 -1110 -1482 -1995 -1859 -159 -67 -407 -155 -425 -149 -7 3 -26 87 -45 193 -37 209 -98 470 -137 583 l-24 73 34 72 c18 40 50 132 71 205 20 72 42 132 48 132 22 0 272 130 360 187 246 161 432 366 550 604 28 58 57 120 63 138 10 30 15 32 39 26 115 -28 295 -24 413 11 152 44 303 166 368 294 34 69 62 178 62 247 l0 42 51 -35 c144 -97 346 -194 403 -194 13 0 29 6 35 14 9 11 -5 39 -69 137 -112 172 -184 317 -236 475 -46 141 -52 169 -31 160 64 -26 300 -97 342 -102 59 -7 95 6 95 36 0 11 -22 53 -48 93 -173 265 -282 641 -313 1075 -7 94 -10 174 -8 177 3 2 27 -3 54 -11 78 -24 241 -54 293 -54 74 0 115 39 76 71 -24 20 -219 259 -296 363 -64 86 -175 273 -167 280 2 2 45 24 94 50 104 53 183 110 204 148 13 23 13 28 -2 51 -9 14 -49 42 -88 62 -100 51 -228 139 -372 255 -146 117 -204 177 -364 375 -158 196 -328 361 -469 454 -115 77 -305 174 -414 212 -36 12 -66 23 -68 24 -1 1 31 35 73 75 75 73 90 105 63 128 -7 5 -62 13 -123 17 -202 13 -391 61 -699 180 -245 94 -295 109 -452 135 -106 18 -153 21 -264 17 -208 -8 -504 -67 -720 -142 -80 -28 -117 -36 -155 -33 -210 14 -651 -14 -747 -48 -47 -16 -78 -40 -78 -60 0 -7 40 -40 89 -74 118 -80 123 -87 74 -95 -203 -35 -429 -104 -588 -179 -284 -135 -467 -298 -744 -665 -101 -133 -234 -264 -377 -372 -110 -83 -266 -182 -332 -211 -51 -23 -77 -58 -68 -93 7 -29 116 -113 219 -170 37 -20 67 -41 67 -46 0 -20 -85 -177 -140 -259 -67 -100 -166 -224 -262 -331 -37 -42 -68 -83 -68 -92 0 -57 149 -47 409 29 l24 7 -6 -137 c-20 -417 -136 -817 -325 -1121 -38 -61 -48 -84 -41 -97 19 -36 147 -15 358 56 l103 35 -7 -37 c-14 -80 -88 -281 -139 -379 -30 -56 -91 -160 -135 -231 -53 -84 -79 -135 -75 -145 20 -53 230 29 432 169 l62 43 0 -73 c0 -281 244 -512 564 -533 84 -5 171 5 272 33 18 5 24 -3 44 -58 101 -279 326 -545 625 -740 98 -64 272 -151 375 -188 36 -13 66 -24 68 -25 1 -1 18 -57 38 -125 19 -68 48 -152 64 -186 l28 -63 -30 -93 c-43 -134 -103 -396 -135 -587 -14 -91 -28 -167 -29 -169 -1 -2 -60 16 -130 39 -725 234 -1365 667 -1857 1256 -43 51 -75 80 -85 78 -9 -1 -25 2 -35 7 -12 6 -17 5 -15 -4 2 -7 -2 -12 -8 -11 -6 1 -11 -4 -11 -12 0 -8 4 -12 8 -10 8 6 23 -25 20 -42 -1 -9 18 -11 39 -3 3 1 8 2 13 1 4 0 7 3 7 8 0 13 -28 22 -34 10 -2 -5 -3 -4 -2 3 2 7 14 12 27 10 23 -3 23 -2 5 13 -11 8 -15 15 -9 15 5 0 18 -9 28 -20 10 -11 13 -20 7 -20 -7 0 -12 -5 -12 -11 0 -6 7 -9 15 -6 8 4 17 2 19 -2 9 -14 -6 -21 -23 -11 -11 5 -23 5 -32 -2 -12 -8 -11 -9 3 -5 24 8 30 -4 10 -19 -16 -12 -15 -13 5 -11 12 0 20 4 18 7 -2 3 5 11 15 18 15 9 21 8 32 -5 10 -13 10 -17 0 -20 -6 -3 -9 -10 -5 -16 4 -7 8 -16 8 -22 0 -5 8 -9 18 -7 12 2 15 -2 10 -14 -4 -12 -3 -15 6 -10 7 5 10 15 6 23 -5 14 -3 14 11 2 10 -8 12 -15 5 -17 -6 -2 -9 -8 -5 -13 3 -5 -4 -9 -16 -9 -13 0 -19 -4 -14 -12 4 -7 3 -8 -4 -4 -6 4 -8 14 -5 23 4 10 2 14 -5 9 -6 -3 -15 2 -21 11 -6 10 -11 14 -11 10 0 -5 9 -21 20 -37 11 -15 17 -30 14 -33 -3 -3 5 -3 18 0 21 6 22 5 9 -10 -12 -16 -8 -22 12 -18 5 1 6 -8 2 -19 -5 -16 -2 -20 16 -20 17 0 20 3 12 11 -8 8 -7 18 3 37 7 14 10 30 7 36 -4 6 -8 6 -11 -2 -2 -7 -9 -12 -15 -12 -8 0 -8 3 0 11 6 6 9 19 6 28 -4 9 5 3 18 -14 13 -16 24 -33 24 -37 0 -5 3 -7 6 -5 4 1 16 -7 28 -17 17 -15 19 -22 9 -29 -10 -6 -9 -8 3 -4 10 3 31 -9 55 -34 21 -21 33 -39 27 -39 -7 0 -15 5 -18 10 -4 6 -11 8 -16 4 -5 -3 -8 0 -7 7 2 7 -10 13 -30 15 -19 1 -30 -1 -26 -7 3 -6 12 -8 20 -5 7 3 16 1 19 -4 4 -6 -5 -10 -18 -10 -13 0 -24 -6 -24 -12 0 -9 14 -12 45 -9 31 2 42 0 38 -8 -4 -6 -2 -11 3 -11 6 0 11 5 11 10 0 22 28 8 65 -32 40 -42 24 -36 -28 11 -15 14 -27 20 -27 15 0 -5 9 -15 20 -22 12 -7 18 -18 14 -24 -4 -7 -13 -3 -23 11 -12 15 -23 20 -35 15 -14 -5 -15 -9 -4 -15 9 -6 10 -9 1 -9 -7 0 -10 -6 -7 -14 4 -11 12 -13 27 -7 29 10 88 4 115 -12 9 -6 9 -13 2 -27 -8 -16 -8 -18 5 -14 8 3 12 11 8 17 -3 6 5 2 19 -9 14 -10 24 -21 22 -23 -2 -2 -10 1 -18 8 -11 10 -14 7 -12 -13 1 -17 4 -21 13 -15 7 7 14 6 18 -1 3 -5 3 -10 -2 -10 -4 0 -1 -5 7 -11 12 -9 11 -10 -6 -6 -16 3 -25 -2 -32 -17 -8 -18 -6 -22 9 -23 11 -1 19 3 19 8 0 6 -5 7 -10 4 -6 -3 -10 -4 -10 -1 0 2 13 11 30 19 22 12 31 12 39 3 12 -14 -2 -41 -21 -41 -7 0 -12 -8 -10 -18 2 -9 -2 -17 -8 -17 -6 0 -8 -5 -5 -10 3 -6 1 -10 -5 -10 -6 0 -9 -4 -6 -9 8 -12 -4 -42 -14 -36 -5 3 -7 16 -6 28 2 16 -2 24 -13 24 -9 0 -18 -3 -21 -7 -3 -4 -14 2 -25 13 l-20 20 20 -10 c16 -8 24 -6 40 9 20 20 20 20 -15 14 -27 -6 -32 -5 -20 4 12 10 11 11 -8 7 -12 -3 -20 -1 -16 4 5 8 -9 13 -28 10 -4 0 -5 5 -3 12 3 6 0 19 -5 27 -9 13 -12 13 -24 -2 -17 -23 -28 -11 -14 16 6 11 7 18 3 14 -5 -4 -15 -2 -23 5 -13 9 -14 9 -8 -1 4 -6 3 -12 -3 -12 -15 0 -23 18 -11 25 5 3 10 10 10 15 0 14 -32 21 -46 9 -9 -8 -14 -8 -14 -1 0 6 5 14 10 17 6 4 8 11 5 16 -4 5 -1 9 4 9 6 0 11 5 11 11 0 8 -5 8 -15 -1 -8 -7 -13 -16 -10 -20 3 -4 -2 -10 -9 -13 -17 -7 -38 15 -34 34 2 7 -6 17 -17 23 -24 13 -26 33 -5 46 16 10 11 11 -50 14 -18 1 -24 6 -22 20 2 11 -1 15 -7 11 -22 -13 -33 7 -14 28 18 20 17 20 -4 15 -13 -4 -26 -2 -29 3 -3 5 -9 7 -14 4 -4 -3 -11 2 -14 11 -4 9 -9 14 -13 11 -8 -9 41 -62 215 -234 79 -79 148 -140 153 -137 5 3 8 1 7 -4 -4 -14 135 -133 295 -252 50 -37 59 -41 75 -29 15 12 16 12 4 -2 -10 -13 -10 -19 2 -28 11 -10 21 -9 45 3 17 9 32 12 36 7 3 -5 -8 -12 -25 -16 -17 -4 -27 -11 -24 -16 3 -6 12 -8 20 -5 8 3 13 0 11 -7 -1 -7 6 -11 15 -11 10 1 16 -2 13 -6 -5 -9 74 -64 82 -56 3 2 -9 12 -27 21 -18 9 -30 17 -28 19 1 1 12 8 23 16 18 14 19 14 7 -2 -9 -11 -10 -18 -2 -23 5 -3 10 -3 10 1 0 4 6 -1 14 -11 8 -11 12 -23 10 -27 -7 -11 35 -30 48 -22 6 4 8 3 4 -4 -8 -14 259 -166 275 -156 7 4 9 3 6 -3 -8 -12 101 -66 115 -57 6 4 8 3 5 -3 -8 -13 70 -46 85 -37 6 4 8 3 5 -3 -8 -13 164 -84 358 -148 471 -156 996 -230 1481 -210 166 7 175 8 171 26 -4 14 -1 19 10 17 9 -2 18 3 21 11 3 9 0 12 -9 9 -9 -4 -14 2 -15 18 -1 13 2 21 7 18 5 -3 9 1 9 10 0 8 -6 17 -12 20 -7 2 5 3 26 1 22 -3 44 -9 50 -15 8 -8 3 -8 -18 0 -16 6 -31 8 -35 5 -7 -8 21 -25 30 -19 4 2 11 -1 15 -7 5 -8 0 -10 -18 -6 -35 9 -40 -1 -15 -29 21 -24 44 -34 31 -12 -4 7 -3 8 4 4 20 -12 13 -26 -14 -26 -14 0 -23 4 -19 10 10 17 -12 11 -26 -7 -13 -15 -8 -16 66 -10 122 9 382 53 544 92 186 45 382 106 375 116 -3 5 1 6 9 3 8 -3 69 16 135 41 l120 47 -2 39 c0 21 2 39 6 39 3 0 4 9 1 20 -4 15 -11 19 -27 15 -17 -5 -17 -3 4 9 18 11 27 11 32 3 6 -9 8 -9 8 0 0 15 -35 35 -45 25 -5 -4 -5 -1 -1 6 4 7 11 10 16 7 4 -3 11 2 14 11 4 12 2 15 -9 10 -60 -24 -31 -7 84 49 73 36 135 65 137 65 2 0 4 -5 4 -10 0 -6 -5 -9 -12 -8 -7 2 -12 -11 -14 -30 -1 -18 -10 -40 -20 -48 -16 -13 -16 -15 -2 -10 9 3 19 2 21 -2 2 -4 3 -2 1 4 -5 23 11 35 31 21 14 -11 15 -16 5 -22 -9 -5 -11 -4 -6 3 4 7 2 12 -3 12 -11 0 -15 -20 -11 -50 1 -13 -1 -12 -12 1 -17 22 -48 32 -48 16 0 -8 -4 -7 -10 3 -6 9 -5 19 3 29 7 8 11 16 10 18 -9 12 0 13 15 2 15 -13 16 -12 3 4 -13 16 -8 22 14 17 6 -1 5 4 -2 10 -7 8 -17 9 -26 4 -15 -8 -17 -12 -17 -31 0 -5 -4 -2 -9 5 -7 11 -11 11 -23 -2 -9 -8 -18 -12 -22 -9 -3 4 -6 1 -6 -6 0 -7 -4 -10 -9 -6 -5 3 -11 -9 -13 -27 -2 -18 -8 -32 -13 -31 -6 1 -12 -7 -12 -18 -2 -17 3 -19 36 -14 29 4 42 1 52 -12 8 -10 9 -14 2 -10 -13 8 -56 -27 -46 -37 4 -3 1 -6 -6 -6 -7 0 -9 -5 -5 -12 4 -7 3 -8 -5 -4 -6 4 -9 11 -6 16 3 5 1 11 -4 14 -11 7 -31 -16 -36 -42 -3 -19 -1 -20 28 -10 73 25 432 215 429 227 -1 7 2 19 9 27 6 7 7 18 3 25 -5 8 -9 8 -15 -3 -5 -9 -19 -13 -43 -10 -20 2 -34 8 -31 12 2 4 16 6 30 5 16 -2 23 1 19 7 -5 7 2 9 20 6 20 -4 30 0 38 16 7 11 11 25 10 29 -1 5 2 6 7 2 6 -3 13 6 17 21 6 23 8 24 16 10 6 -11 6 -22 -2 -31 -14 -17 -5 -49 10 -40 8 5 8 11 0 20 -8 10 -6 13 7 11 10 0 21 -5 25 -11 4 -6 8 -2 8 8 0 10 4 16 10 12 14 -9 0 -37 -16 -31 -17 6 -28 -10 -13 -20 15 -9 271 165 262 180 -3 6 -3 8 2 4 10 -9 47 10 40 21 -2 5 3 15 13 22 15 13 16 12 3 -3 -7 -10 -9 -18 -3 -18 15 0 33 26 24 35 -4 5 -2 5 5 1 16 -9 64 34 66 61 0 12 5 20 9 17 4 -3 4 -12 1 -22 -4 -9 18 4 48 30 50 42 74 88 47 88 -6 0 -3 11 6 25 18 27 11 32 -16 11 -10 -7 -14 -17 -10 -21 4 -5 1 -5 -5 -1 -7 4 -13 3 -13 -2 0 -6 7 -12 15 -16 16 -6 21 -41 6 -50 -4 -3 -7 6 -5 19 1 14 -2 26 -7 26 -5 1 -13 2 -18 3 -6 0 -15 6 -22 13 -9 9 -9 15 0 27 9 11 9 15 -1 19 -7 3 -2 5 11 4 13 -1 26 4 29 12 3 10 0 12 -12 8 -10 -4 -15 -3 -11 3 7 11 41 8 52 -5 5 -4 2 -5 -4 -1 -7 4 -13 3 -13 -3 0 -17 14 -19 45 -5 25 11 21 19 -7 15 -3 0 -5 7 -4 16 2 11 14 17 34 19 25 2 30 -1 27 -17 -3 -13 2 -19 16 -19 16 0 17 -3 7 -19 -6 -10 -18 -17 -25 -14 -9 4 -11 0 -7 -13 5 -16 4 -16 -5 -4 -8 11 -7 18 3 25 12 9 11 15 -3 34 -14 18 -20 21 -26 11 -5 -8 -4 -11 2 -7 6 4 14 0 17 -8 3 -10 -1 -19 -12 -23 -19 -8 -28 -32 -12 -32 5 0 10 -5 10 -11 0 -8 -4 -8 -15 1 -12 10 -14 7 -12 -19 1 -17 5 -30 9 -28 22 8 247 231 242 239 -4 6 -2 8 3 5 17 -10 43 26 36 51 -3 13 -10 19 -17 15 -6 -4 -5 1 2 10 10 12 11 20 2 34 -10 16 -10 15 -5 -4 6 -22 -8 -32 -19 -14 -4 5 -17 8 -31 6 -14 -1 -25 2 -25 6 0 9 16 13 34 10 5 -1 6 4 3 11 -5 14 17 40 27 31 3 -4 6 1 6 10 0 20 16 22 26 5 4 -7 4 -10 0 -6 -4 3 -15 -1 -25 -10 -15 -16 -15 -18 4 -28 11 -5 20 -19 19 -32 0 -14 5 -22 15 -22 14 0 14 -2 1 -10 -8 -5 -12 -12 -9 -15 7 -7 90 82 178 189 53 65 60 78 51 96 -13 25 -24 26 -16 3 6 -17 5 -17 -7 -1 -8 10 -16 16 -18 13 -3 -2 0 22 6 53 6 38 11 48 13 32 5 -36 29 -59 54 -52 14 3 19 1 14 -6 -3 -6 -15 -9 -26 -7 -11 2 -22 0 -25 -5 -3 -5 4 -7 16 -5 17 4 19 2 8 -11 -6 -8 -10 -17 -7 -19 9 -9 192 243 267 368 l23 37 -31 -17 c-22 -13 -27 -21 -19 -30 7 -9 7 -13 -1 -13 -11 0 -15 13 -12 36 1 7 -6 15 -16 18 -10 4 -14 4 -11 0 4 -4 2 -16 -4 -28 -7 -11 -11 -25 -10 -30 2 -5 -4 -3 -13 4 -14 11 -15 10 -6 -11 8 -22 6 -25 -14 -27 -13 -1 -28 5 -35 13 -17 20 -29 19 -25 -2 2 -10 4 -20 4 -23 1 -3 6 2 11 10 6 10 10 11 10 3 0 -7 9 -13 20 -13 11 0 20 -5 20 -11 0 -6 -7 -8 -17 -5 -9 4 -20 1 -25 -6 -13 -21 -9 -31 7 -18 9 7 18 10 22 7 3 -4 12 -2 19 4 8 7 14 7 19 -1 6 -9 -14 -14 -43 -11 -7 1 -12 -2 -11 -6 4 -23 -2 -43 -11 -38 -5 3 -10 1 -10 -5 0 -7 9 -9 23 -5 19 5 20 5 4 -5 -9 -6 -15 -15 -12 -20 3 -5 1 -11 -4 -14 -15 -10 -25 15 -27 69 -3 83 -3 82 -19 61 -8 -11 -15 -15 -15 -9 0 6 7 16 15 23 12 10 13 15 4 21 -8 4 -4 9 10 14 11 3 21 14 20 23 0 9 -3 12 -5 6 -3 -7 -13 -10 -22 -7 -17 4 -57 -47 -47 -61 3 -3 2 -4 -2 -1 -10 8 -65 -74 -57 -86 4 -8 3 -9 -4 -5 -17 10 -15 -4 4 -25 12 -13 12 -19 3 -25 -7 -4 -10 -3 -6 3 8 13 -20 39 -30 29 -4 -4 -3 -10 3 -14 5 -4 9 -14 8 -22 0 -8 -2 -26 -2 -39 -1 -13 -5 -21 -9 -17 -11 11 -10 30 1 38 6 4 7 10 4 13 -4 4 -16 1 -27 -7 -12 -8 -18 -18 -13 -22 4 -4 0 -6 -8 -4 -21 4 -24 -36 -5 -56 9 -9 22 -14 28 -10 7 3 4 -1 -7 -10 -10 -8 -15 -20 -11 -25 3 -6 -1 -14 -9 -17 -23 -9 -20 -29 4 -31 11 -1 18 2 16 6 -3 4 -1 13 5 21 7 13 9 12 9 -2 0 -10 6 -18 14 -18 23 0 27 -16 5 -17 -30 -3 -51 -24 -46 -45 3 -10 1 -16 -4 -12 -5 3 -9 17 -9 32 0 20 -3 23 -9 13 -7 -11 -10 -10 -14 5 -4 15 -5 14 -7 -6 -1 -14 -2 -31 -1 -39 2 -7 -2 -10 -8 -6 -6 3 -11 13 -11 21 0 19 -17 18 -29 -3 -10 -16 -11 -16 -17 5 -8 28 -41 26 -66 -3 -10 -11 -17 -15 -17 -10 0 6 19 31 42 56 36 38 46 45 65 38 15 -6 22 -5 22 4 1 7 7 1 16 -13 15 -25 15 -25 8 -1 -4 15 -2 21 4 17 14 -8 24 8 17 27 -4 9 -15 12 -31 9 -20 -4 -23 -7 -12 -14 10 -8 9 -9 -3 -5 -9 3 -22 0 -29 -6 -7 -7 -2 3 10 21 22 29 40 46 25 22 -3 -5 1 -10 9 -10 11 0 16 9 16 26 0 28 33 78 45 66 3 -4 5 0 3 8 -2 8 3 14 10 12 8 -1 11 2 8 7 -3 5 28 57 69 116 41 59 89 132 106 162 17 30 34 52 36 49 3 -3 0 -12 -7 -21 -8 -9 -9 -20 -4 -28 18 -25 3 -74 -19 -60 -7 4 -4 -5 6 -20 10 -15 13 -27 7 -27 -7 0 -5 -7 4 -15 8 -8 17 -15 19 -15 9 0 -6 45 -17 53 -6 4 5 5 23 2 34 -6 35 -6 17 14 -13 14 -14 21 -5 27 7 4 10 3 5 -4 -3 -6 -2 -13 4 -17 5 -3 10 0 10 9 0 8 6 17 13 19 7 3 5 6 -5 6 -10 1 -16 7 -14 14 12 36 15 77 6 72 -6 -3 -7 1 -4 9 3 9 10 14 14 11 5 -3 11 -1 14 4 4 5 2 12 -3 16 -19 11 -2 62 59 186 34 68 64 126 66 128 3 3 10 -1 17 -9 9 -10 9 -11 0 -6 -8 4 -20 -8 -33 -33 -22 -44 -25 -55 -11 -46 5 3 13 0 17 -6 4 -7 3 -9 -2 -6 -16 9 -29 -5 -68 -75 -24 -43 -33 -68 -25 -68 10 0 10 -3 1 -12 -16 -16 -15 -45 2 -51 8 -3 16 -3 19 0 9 8 -4 33 -14 27 -13 -8 -11 8 4 27 7 9 18 14 25 11 11 -3 12 0 3 17 -10 17 -9 22 4 27 9 4 13 13 11 23 -3 9 -1 23 5 31 9 13 10 12 5 -2 -3 -11 2 -19 16 -24 19 -6 20 -8 6 -18 -9 -7 -18 -27 -21 -45 -3 -18 -3 -30 0 -27 3 3 18 -1 34 -10 16 -8 29 -11 29 -6 0 4 -12 13 -27 20 l-28 11 33 -4 c29 -3 33 -1 30 18 -2 14 3 23 15 25 9 2 17 -1 17 -7 0 -6 -5 -11 -11 -11 -7 0 -9 -10 -5 -28 5 -21 4 -24 -5 -12 -9 13 -10 13 -6 -2 3 -9 1 -18 -6 -21 -8 -2 -8 -5 1 -11 13 -8 69 98 161 307 115 259 195 508 255 789 38 178 70 397 63 425 -3 10 -6 2 -7 -17 -1 -28 -3 -31 -9 -15 -5 11 -7 23 -4 27 2 4 -3 5 -11 2 -12 -4 -13 -11 -6 -24 5 -9 6 -20 3 -24 -3 -3 1 -6 11 -6 14 0 15 -3 5 -22 -7 -13 -11 -25 -10 -28 1 -2 -3 -6 -10 -9 -7 -2 -9 1 -4 9 6 9 4 11 -4 6 -8 -5 -14 0 -18 14 -4 16 -8 18 -14 8 -7 -10 -9 -9 -9 5 0 21 18 23 26 2 4 -8 10 -13 14 -10 11 7 3 56 -11 69 -7 6 -9 6 -6 1 3 -6 1 -17 -5 -25 -8 -12 -9 -12 -4 3 7 23 -6 22 -24 -3 -17 -23 -42 -27 -34 -5 4 8 12 15 19 15 8 0 22 11 33 25 14 18 22 22 26 13 5 -10 7 -10 12 0 3 6 10 10 14 7 5 -3 8 3 7 14 -1 16 -4 18 -16 8 -12 -10 -14 -9 -8 6 4 10 2 17 -6 17 -8 0 -6 4 3 10 20 13 33 12 24 -2 -4 -7 -3 -8 5 -4 15 10 3 29 -15 22 -7 -3 -16 -1 -19 5 -4 5 -3 9 2 8 27 -5 33 1 23 22 -7 11 -9 24 -5 27 12 12 36 -32 34 -63 -2 -43 0 -69 6 -64 2 3 9 101 15 218 12 243 2 512 -30 769 -11 86 -20 163 -20 170 0 7 -4 11 -9 8 -5 -4 -7 2 -4 12 2 10 -7 75 -22 143 -35 165 -36 170 -45 164 -5 -3 -6 3 -3 14 2 10 -5 52 -17 92 -99 342 -221 634 -382 916 -71 124 -83 141 -97 130 -14 -10 -14 -10 -3 5 11 14 8 25 -23 72 -20 31 -40 54 -44 51 -5 -2 -15 3 -22 13 -13 15 -12 16 4 3 23 -18 22 -6 -5 32 -73 108 -151 206 -161 204 -6 -1 -11 5 -12 13 0 23 -56 91 -68 83 -5 -3 -7 -1 -3 5 8 14 -43 74 -56 65 -7 -3 -8 -1 -4 5 7 12 -93 129 -106 124 -4 -1 -7 4 -6 10 2 7 -3 12 -10 10 -8 -1 -11 1 -8 6 3 5 -13 26 -36 48 -22 21 -37 33 -33 25 5 -10 4 -12 -4 -7 -6 4 -9 11 -7 15 7 11 -59 73 -68 64 -4 -5 -6 -3 -4 3 4 14 -67 75 -77 66 -5 -4 -5 -2 -2 4 14 24 -400 343 -424 328 -7 -4 -9 -3 -6 3 9 15 -150 116 -166 107 -6 -4 -9 -4 -5 1 10 10 -29 36 -170 114 -125 69 -187 98 -177 82 3 -7 0 -8 -9 -5 -9 3 -14 9 -11 14 9 15 -268 131 -475 198 -258 83 -488 136 -747 172 -225 31 -692 53 -679 32z m243 -19 c0 -9 -4 -10 -13 -2 -8 7 -14 7 -19 -1 -4 -7 -17 -9 -29 -6 -18 4 -22 1 -21 -14 1 -11 4 -23 8 -26 15 -15 7 -32 -13 -27 -11 3 -17 9 -15 14 3 4 -4 7 -15 6 -24 -2 -26 -12 -4 -21 8 -3 13 -10 9 -16 -14 -22 15 -49 58 -53 23 -2 3 -4 -45 -5 -49 -1 -88 2 -88 7 0 5 17 7 38 4 20 -3 35 -3 32 0 -4 5 -40 13 -72 16 -17 2 -7 21 10 19 9 -1 26 0 36 0 17 2 16 5 -8 27 -15 14 -32 25 -39 25 -7 -1 -1 -8 13 -16 24 -14 24 -15 2 -11 -13 3 -20 1 -16 -5 4 -6 -2 -6 -14 1 -28 15 -31 14 -26 -6 3 -11 -6 -25 -23 -37 l-28 -20 19 22 c11 12 16 25 13 29 -4 3 -3 11 2 17 10 12 -3 56 -17 56 -4 0 -8 -9 -9 -20 -1 -11 2 -18 8 -15 17 11 9 -2 -13 -21 -12 -10 -18 -14 -15 -8 4 7 -1 18 -10 25 -9 8 -14 9 -10 3 4 -7 0 -17 -8 -24 -13 -11 -14 -10 -10 3 7 15 -30 35 -42 23 -4 -3 0 -6 9 -6 8 0 15 -6 15 -14 0 -13 -4 -13 -29 0 -15 8 -28 13 -28 10 0 -2 -3 -12 -7 -22 -4 -12 -3 -15 5 -10 7 4 12 2 12 -4 0 -7 -8 -9 -20 -5 -17 5 -19 2 -17 -17 4 -22 9 -23 86 -26 47 -2 88 2 95 7 9 8 13 7 13 -3 0 -10 -33 -15 -135 -20 -75 -3 -138 -4 -140 -1 -3 3 17 5 43 5 38 0 46 3 37 12 -7 7 -12 24 -12 39 0 15 -3 29 -7 32 -5 2 -3 2 4 1 15 -4 36 22 29 35 -4 6 -13 8 -21 5 -8 -4 -12 -11 -8 -17 4 -6 0 -8 -8 -5 -10 4 -15 -2 -17 -18 -1 -13 3 -24 8 -24 6 0 10 -5 10 -11 0 -5 -4 -7 -10 -4 -5 3 -10 2 -10 -4 0 -5 6 -11 13 -14 6 -3 2 -4 -10 -4 -16 1 -19 5 -14 15 9 16 3 52 -9 52 -4 0 -7 -10 -7 -22 -1 -48 -4 -56 -23 -61 -22 -6 -59 17 -47 30 5 4 13 0 18 -10 6 -9 15 -15 20 -11 6 3 5 12 -3 22 -11 15 -11 15 4 4 12 -9 18 -10 23 -2 4 7 -2 14 -14 17 -12 3 -21 11 -21 18 0 7 -7 15 -15 19 -10 4 -17 -4 -23 -26 -4 -17 -14 -34 -21 -36 -8 -3 -11 0 -7 7 4 6 9 21 12 33 3 13 6 28 7 33 2 6 8 19 14 30 10 17 14 18 25 6 7 -8 8 -11 2 -8 -7 4 -18 -1 -25 -10 -12 -15 -11 -16 9 -11 12 4 20 3 18 0 -2 -4 2 -13 10 -19 8 -8 15 -9 19 -3 3 6 1 10 -4 10 -6 0 -11 5 -11 10 0 7 6 7 20 0 14 -7 20 -7 20 0 0 5 -4 10 -10 10 -5 0 -10 5 -10 11 0 5 6 7 13 3 9 -6 9 -5 0 7 -11 14 -6 16 43 16 36 0 54 -4 51 -11 -3 -6 2 -18 11 -26 14 -12 15 -11 10 8 -4 12 -1 25 4 29 7 3 8 1 4 -5 -4 -7 -3 -12 3 -12 5 0 12 6 14 13 4 7 8 3 12 -10 5 -16 15 -23 31 -23 13 0 26 0 29 0 3 0 5 3 4 8 0 4 -8 6 -17 5 -15 -1 -15 0 1 12 18 13 18 13 0 18 -14 4 -14 5 5 6 12 0 22 -4 22 -11 0 -6 3 -9 6 -5 4 3 14 -3 24 -15 13 -16 19 -18 25 -8 5 9 4 11 -3 6 -13 -8 -15 4 -6 28 5 13 25 15 118 14 85 -1 113 -5 113 -15z m-1158 -125 c-1 -1 3 -13 10 -25 10 -21 9 -23 -9 -23 -27 0 -22 -18 10 -39 14 -9 21 -11 17 -4 -6 10 0 11 22 7 23 -5 32 -2 40 15 7 12 8 21 2 21 -5 0 -12 -8 -14 -17 -3 -13 -5 -12 -6 5 0 13 -5 21 -11 17 -5 -3 -7 -12 -3 -20 3 -8 1 -15 -5 -15 -6 0 -15 14 -21 30 -8 23 -7 29 2 23 24 -15 49 -9 64 14 12 18 18 21 24 11 7 -10 9 -10 9 0 0 6 5 12 10 12 7 0 7 -7 0 -20 -6 -11 -16 -19 -23 -18 -7 2 -13 -2 -14 -7 -2 -5 3 -10 10 -11 33 -3 38 -5 33 -12 -3 -5 1 -9 9 -9 8 0 12 4 9 8 -2 4 0 10 6 14 5 3 10 1 10 -5 0 -6 5 -8 11 -4 8 4 7 9 -2 15 -11 7 -11 9 2 9 9 0 19 7 23 15 6 16 26 16 38 1 3 -5 -3 -22 -15 -38 -15 -21 -23 -25 -30 -16 -6 9 -7 5 -4 -9 5 -23 -7 -31 -18 -13 -3 6 -11 10 -16 10 -6 0 -8 -4 -4 -9 3 -5 1 -13 -5 -16 -14 -9 -41 14 -38 31 2 7 -1 12 -7 11 -5 -1 -8 -10 -7 -21 3 -12 0 -16 -8 -11 -9 5 -10 1 -6 -12 5 -17 1 -22 -25 -27 -18 -3 -30 -8 -28 -11 3 -2 22 0 43 6 20 6 42 9 48 7 5 -2 -32 -14 -83 -27 -138 -35 -383 -115 -519 -171 -117 -49 -384 -179 -490 -241 -50 -29 -53 -30 -32 -7 12 13 19 28 15 32 -4 4 -1 11 7 16 13 8 12 10 -2 10 -10 0 -18 4 -18 8 0 5 -16 16 -36 25 -19 10 -32 22 -29 28 5 7 11 6 21 -2 11 -9 15 -8 20 4 3 9 16 22 28 30 20 14 22 14 21 -1 -1 -10 -5 -24 -8 -32 -7 -21 -5 -50 4 -50 13 0 20 18 9 25 -15 9 -12 22 6 29 12 4 15 2 10 -9 -3 -8 -1 -15 5 -15 6 0 8 -4 4 -9 -3 -5 0 -13 6 -16 5 -4 8 -14 5 -22 -4 -9 -1 -13 6 -10 7 2 12 12 12 21 -2 13 1 14 12 5 12 -10 13 -9 8 5 -3 9 -13 16 -21 16 -9 0 -13 6 -9 15 3 9 -4 20 -21 28 -16 9 -22 17 -15 21 6 4 9 13 6 21 -5 11 -11 12 -27 4 -14 -7 -9 1 12 20 38 34 98 44 98 16 0 -9 -6 -14 -14 -11 -21 8 -15 -2 8 -15 12 -6 19 -7 16 -1 -4 5 1 18 9 28 9 10 13 13 9 7 -8 -17 5 -16 27 1 10 7 20 28 22 47 2 20 9 33 16 31 7 -2 21 4 30 13 17 16 18 15 16 -9 -2 -14 1 -26 6 -26 5 0 8 -6 6 -14 -2 -8 2 -15 7 -14 6 0 9 4 8 8 -1 4 4 10 11 13 9 4 13 0 11 -11 -2 -9 -4 -21 -4 -26 -1 -5 -4 -7 -7 -3 -3 3 -16 2 -28 -3 -13 -4 -29 -5 -36 0 -19 12 -40 1 -40 -21 0 -12 5 -16 15 -13 9 4 15 0 15 -9 0 -10 -7 -13 -20 -10 -11 3 -20 12 -20 19 0 18 -8 18 -27 -2 -13 -12 -13 -15 -2 -14 17 3 59 -10 59 -17 0 -3 -10 -14 -22 -25 -20 -17 -23 -18 -26 -4 -2 10 -14 16 -28 16 -14 0 -22 -4 -19 -10 3 -5 0 -7 -9 -4 -8 3 -12 13 -9 22 3 11 2 13 -4 6 -4 -6 -15 -14 -23 -17 -12 -4 -11 -6 3 -6 15 -1 16 -4 6 -23 -10 -18 -9 -20 5 -15 10 4 14 3 11 -2 -3 -5 3 -12 13 -15 11 -4 47 8 88 29 45 22 61 35 47 35 -25 0 -29 10 -12 27 12 12 42 6 34 -6 -2 -4 2 -8 10 -8 8 0 15 4 15 9 0 5 4 7 9 4 5 -3 12 1 15 10 4 10 14 14 26 11 12 -3 17 -1 14 5 -3 5 0 8 7 7 23 -5 63 12 82 35 10 11 16 15 12 9 -3 -7 -1 -13 4 -13 6 0 11 5 11 11 0 5 4 8 9 5 12 -8 42 4 36 14 -3 5 4 6 15 3 12 -3 20 0 20 6 0 7 4 10 9 6 5 -3 12 -1 16 5 3 5 1 10 -4 10 -6 0 -11 5 -11 12 0 6 10 3 22 -8 21 -19 21 -19 14 1 -5 11 -9 25 -9 32 -1 24 -25 21 -32 -4 -3 -14 -9 -23 -12 -19 -3 3 -12 1 -20 -5 -9 -8 -13 -8 -13 -1 0 7 -15 10 -36 8 -44 -4 -74 3 -74 16 0 6 7 8 15 4 18 -6 21 19 3 30 -7 5 -8 3 -3 -6 5 -8 3 -11 -5 -8 -21 7 -24 28 -3 28 15 0 16 2 3 10 -9 6 -10 10 -3 10 6 0 20 3 30 6 14 4 15 4 4 -4 -15 -11 -7 -32 12 -32 7 0 6 4 -3 10 -10 6 -11 10 -2 10 6 0 12 7 12 16 0 14 2 15 17 3 15 -12 16 -12 10 4 -6 17 -5 17 16 2 12 -8 22 -23 22 -32 0 -9 6 -17 13 -19 7 -1 8 0 2 3 -15 7 -12 23 5 23 8 0 15 -5 15 -12 0 -6 2 -9 5 -6 10 10 -8 39 -21 34 -8 -3 -14 1 -14 10 0 8 -4 13 -9 9 -5 -3 -12 -1 -15 4 -8 12 47 22 59 10 7 -7 3 -8 -9 -3 -25 10 -13 -12 16 -27 14 -8 18 -8 14 0 -4 6 -2 20 5 32 10 19 9 21 -5 16 -11 -4 -15 -3 -11 4 4 6 13 8 21 5 8 -3 14 -1 14 4 0 6 4 10 8 10 4 0 8 -9 8 -19 0 -11 -4 -17 -8 -15 -4 3 -8 0 -8 -5 0 -15 27 -14 33 2 3 6 6 3 6 -7 1 -20 1 -20 17 0 8 10 12 13 8 5 -5 -10 -3 -12 7 -5 30 18 69 8 69 -18 0 -6 -6 -5 -15 2 -8 6 -20 10 -27 7 -8 -3 -6 -6 5 -6 10 -1 15 -6 12 -11 -4 -6 -1 -9 7 -8 9 2 12 -6 11 -24 -1 -16 3 -28 10 -27 19 1 83 27 69 28 -7 1 -10 6 -7 11 3 6 -3 10 -15 10 -12 0 -18 4 -15 10 3 6 -1 7 -9 4 -9 -3 -13 -11 -9 -17 3 -5 1 -7 -4 -4 -7 4 -3 21 10 47 14 30 23 38 31 30 6 -6 11 -14 12 -18 6 -36 18 -72 24 -72 5 0 16 3 24 6 13 5 14 9 5 20 -6 8 -17 14 -23 14 -7 0 -12 10 -13 23 -2 20 -1 21 11 5 7 -10 17 -18 21 -18 4 0 2 7 -5 15 -6 8 -9 18 -6 24 3 5 -4 7 -16 4 -22 -5 -22 -4 2 16 20 16 26 17 28 6 2 -9 12 -13 25 -11 12 3 27 5 32 6 6 0 2 5 -8 11 -9 5 -22 7 -27 4 -6 -3 -10 -1 -10 4 0 6 5 11 10 11 6 0 19 9 30 20 20 20 46 28 35 10 -3 -6 1 -7 9 -4 19 7 11 24 -12 25 -14 0 -13 2 3 8 18 8 30 7 24 -1z m3084 -446 c-4 -9 -11 -21 -17 -25 -7 -6 -4 -7 6 -3 10 3 20 1 24 -5 3 -6 12 -8 20 -5 8 3 14 -1 14 -8 0 -24 48 -26 64 -2 l15 21 -5 -21 c-4 -14 -1 -21 11 -21 9 0 14 6 11 14 -3 7 -1 13 4 13 6 0 10 -5 10 -11 0 -5 5 -7 11 -4 6 4 13 -3 16 -15 4 -16 8 -18 14 -8 6 9 9 7 9 -9 0 -13 -6 -23 -12 -23 -9 0 -10 -3 -2 -8 6 -4 11 -15 11 -24 0 -14 -3 -15 -14 -7 -10 9 -13 6 -11 -14 3 -33 31 -41 48 -13 10 17 10 19 -1 9 -21 -21 -31 -15 -15 8 8 12 12 29 8 38 -5 14 -4 14 12 -1 9 -10 26 -18 37 -18 10 0 19 -7 19 -15 0 -8 -4 -15 -9 -15 -5 0 -7 -9 -4 -19 3 -13 10 -18 21 -14 12 5 14 2 9 -11 -4 -10 -7 -22 -7 -27 0 -5 -4 -9 -10 -9 -5 0 -7 7 -4 15 6 14 -17 21 -55 15 -24 -3 -62 10 -56 20 10 17 -13 20 -26 3 -10 -12 -10 -14 -1 -9 6 4 12 2 12 -3 0 -6 -8 -11 -17 -11 -17 -1 -17 -1 0 -11 9 -5 22 -7 29 -3 6 4 8 3 5 -3 -9 -14 19 -37 33 -28 6 4 9 1 8 -7 -2 -7 5 -12 14 -12 10 1 16 -3 15 -9 -1 -6 7 -11 18 -12 11 0 21 -6 21 -12 3 -25 4 -25 21 -12 15 12 16 12 10 -3 -4 -11 4 -24 27 -42 31 -24 46 -25 46 -4 0 5 -4 7 -9 4 -10 -7 -9 13 1 30 4 6 -6 21 -23 33 l-31 23 22 20 c17 16 19 22 8 29 -12 8 -4 13 15 10 4 0 7 3 7 9 0 6 -5 10 -11 10 -5 0 -7 5 -4 11 5 6 13 3 22 -11 12 -16 12 -24 3 -35 -7 -9 -8 -15 -2 -15 5 0 12 7 16 15 10 27 46 -18 40 -50 -3 -16 -1 -24 5 -21 6 4 7 -5 1 -24 -5 -17 -9 -34 -9 -38 -1 -4 -7 -7 -13 -7 -7 0 -12 5 -11 11 1 7 -6 14 -17 17 -18 5 -18 4 -2 -21 9 -15 12 -23 5 -19 -6 4 -14 3 -18 -3 -6 -9 8 -14 28 -11 5 1 6 -3 2 -8 -3 -6 4 -15 15 -21 16 -8 20 -8 20 4 0 8 -6 17 -12 19 -8 3 -5 6 5 6 10 1 15 6 12 11 -3 6 -2 10 4 10 5 0 11 -6 14 -12 4 -10 7 -10 18 -1 19 19 20 43 1 35 -10 -4 -12 -7 -4 -10 7 -2 9 -8 6 -13 -9 -16 -34 11 -34 36 0 22 29 31 41 13 3 -5 9 -3 12 6 4 9 2 16 -3 16 -6 0 -10 5 -10 11 0 8 4 8 14 0 10 -9 12 -20 6 -41 -10 -35 -5 -40 35 -35 42 4 58 -4 44 -21 -13 -16 -32 -8 -23 9 5 8 3 8 -6 0 -11 -11 -11 -17 0 -38 9 -18 16 -22 21 -13 4 7 6 15 3 19 -2 4 1 11 7 15 8 5 10 0 6 -18 -7 -26 -5 -27 56 -29 20 0 27 -4 23 -14 -3 -8 0 -15 6 -17 6 -2 -1 -9 -16 -16 -22 -10 -26 -9 -26 4 0 8 5 12 10 9 6 -3 10 0 10 8 0 8 -9 13 -22 11 -13 -1 -23 -3 -23 -4 0 -1 -8 -3 -18 -5 -9 -2 -22 5 -28 16 -5 11 -15 16 -21 13 -7 -4 -8 -3 -4 4 4 7 2 12 -3 12 -6 0 -11 -5 -11 -11 0 -5 -3 -8 -8 -5 -4 2 -12 -6 -18 -19 -10 -20 -8 -27 7 -41 18 -16 20 -16 41 2 l22 19 -20 -26 -19 -27 -55 47 c-77 66 -239 187 -342 256 -49 32 -88 61 -88 65 0 4 10 10 23 13 20 6 21 5 4 -7 -15 -11 -15 -15 -3 -19 8 -3 17 -1 19 6 2 7 8 8 13 4 5 -4 3 -12 -5 -16 -10 -7 -9 -10 3 -14 16 -6 21 6 16 47 -1 11 3 16 9 11 6 -3 8 -11 5 -17 -4 -7 -2 -8 4 -4 7 4 12 13 12 21 0 14 -16 15 -38 1 -8 -5 -12 -3 -10 6 2 8 -7 13 -24 12 -15 0 -25 4 -22 8 3 4 0 8 -5 8 -6 0 -11 -4 -11 -10 0 -15 -27 -12 -33 4 -4 10 -1 13 9 9 18 -7 18 2 0 20 -9 9 -11 19 -5 28 7 11 9 11 9 -3 0 -10 5 -18 10 -18 6 0 10 7 10 15 0 14 -11 19 -37 16 -7 -1 -13 4 -13 10 0 7 -3 9 -6 6 -4 -4 -1 -13 6 -22 9 -11 9 -15 1 -15 -7 0 -10 -4 -6 -9 3 -5 -4 -13 -16 -16 -16 -6 -18 -9 -8 -15 7 -5 17 -6 23 -3 5 3 6 1 3 -4 -7 -11 19 -27 39 -25 6 1 11 -4 11 -13 0 -11 -10 -8 -41 11 -23 14 -74 43 -113 65 -40 23 -73 45 -73 51 0 5 7 2 16 -6 16 -16 28 -20 53 -17 7 2 10 -2 6 -8 -3 -7 0 -8 9 -5 10 4 16 1 16 -9 0 -23 31 -30 49 -12 15 15 14 18 -6 34 -12 10 -19 21 -16 25 3 3 12 -2 20 -12 8 -9 12 -11 8 -4 -8 15 16 83 26 76 5 -2 5 -12 2 -22z m-4684 -524 c-5 -9 -18 -20 -30 -23 -12 -4 -18 -12 -15 -21 7 -19 -22 -30 -37 -14 -9 10 -9 12 3 8 11 -4 16 1 17 13 2 23 -24 14 -32 -12 -4 -10 -11 -19 -16 -19 -5 0 -9 -8 -9 -17 0 -15 -2 -15 -9 -4 -6 9 -4 19 5 29 8 8 12 17 9 20 -3 3 -12 -4 -21 -16 -8 -12 -21 -19 -29 -16 -8 4 -15 1 -15 -6 0 -6 4 -9 9 -5 5 3 13 0 17 -6 4 -8 3 -9 -4 -5 -7 4 -12 2 -12 -4 0 -8 -6 -8 -20 0 -11 6 -25 8 -30 5 -6 -3 -10 -2 -10 4 0 5 -12 7 -27 5 -28 -5 -28 -5 -8 14 14 13 22 16 27 8 5 -7 8 -4 8 7 0 9 8 17 17 17 9 0 13 3 10 7 -4 3 11 24 33 46 l41 39 20 -23 c13 -15 16 -25 8 -29 -7 -5 -5 -9 5 -13 10 -4 16 -1 16 7 0 7 11 25 25 40 l26 28 18 -24 c14 -16 16 -28 10 -40z m5615 -181 c-5 17 -5 17 6 0 9 -13 8 -21 -5 -33 -19 -20 -15 -36 9 -40 10 -1 21 -6 24 -10 4 -4 -1 -4 -10 -1 -10 4 -18 2 -18 -3 0 -13 27 -13 35 0 11 18 23 11 30 -17 4 -16 11 -33 17 -40 11 -14 32 -7 23 8 -3 5 1 6 9 3 9 -3 13 -10 10 -15 -3 -5 1 -12 9 -15 7 -2 14 -11 14 -19 0 -23 -15 -18 -23 7 -6 21 -7 21 -21 3 -13 -19 -14 -19 -19 3 -4 12 -10 19 -16 16 -5 -3 -4 -12 3 -20 10 -12 9 -13 -5 -8 -9 3 -16 1 -16 -6 0 -7 11 -9 29 -7 40 7 51 -3 42 -38 0 -3 -12 2 -26 11 -15 10 -25 12 -25 5 0 -6 7 -11 15 -11 8 0 20 -10 26 -22 11 -21 11 -22 -4 -10 -9 8 -21 11 -27 7 -5 -3 -10 -2 -10 2 0 5 -9 9 -20 9 -27 0 -25 -13 10 -53 17 -18 30 -28 30 -20 0 7 -10 24 -22 37 -18 20 -19 23 -4 17 10 -4 21 -7 25 -7 3 0 8 -10 9 -22 5 -53 20 -90 33 -82 5 3 8 0 7 -6 -2 -7 9 -14 25 -15 15 -2 25 0 22 5 -3 5 -1 11 5 15 5 3 10 -1 10 -9 0 -9 4 -16 8 -16 5 0 8 10 6 23 -1 12 -3 27 -3 32 -1 6 -5 3 -11 -5 -5 -8 -10 -12 -12 -10 -2 3 -12 15 -22 27 -16 19 -17 25 -5 39 11 14 10 15 -7 12 -10 -1 -24 -10 -31 -18 -11 -13 -12 -13 -13 3 0 15 11 22 33 18 4 0 7 4 7 10 0 5 4 7 10 4 5 -3 7 0 5 7 -4 10 5 15 31 16 l37 3 -6 -36 c-5 -31 -3 -37 16 -44 12 -5 28 -6 35 -4 7 3 18 -8 25 -26 7 -17 15 -29 18 -27 3 3 11 -5 18 -17 12 -19 12 -20 0 -10 -17 13 -58 14 -75 1 -8 -5 -13 -1 -17 12 -4 17 -2 20 16 15 17 -5 19 -4 7 4 -27 19 -40 13 -34 -16 5 -27 4 -28 -35 -27 -43 1 -50 -6 -27 -25 11 -9 18 -8 30 4 9 9 16 12 16 7 0 -5 -7 -15 -15 -22 -12 -10 -13 -16 -4 -26 14 -17 33 -8 25 12 -3 7 -1 16 5 19 5 4 8 1 7 -7 -2 -8 6 -13 20 -12 24 2 28 -5 12 -24 -6 -6 -7 -10 -4 -7 9 6 46 -37 38 -44 -3 -3 -11 2 -18 12 -7 9 -24 17 -36 17 -13 0 -20 -3 -16 -7 4 -5 10 -7 12 -5 3 2 17 -4 31 -13 32 -22 50 -7 32 26 -11 22 -11 23 4 10 15 -12 17 -11 17 4 0 31 24 9 27 -26 3 -33 3 -33 -13 -14 -15 18 -16 18 -10 2 3 -10 6 -25 6 -33 0 -19 46 -18 54 1 3 9 12 12 21 8 12 -4 13 -8 5 -13 -8 -5 -4 -9 9 -13 12 -3 19 -1 16 3 -3 5 -1 12 5 15 6 4 9 1 8 -7 -2 -7 2 -12 8 -11 5 1 15 -7 22 -17 10 -17 8 -18 -21 -14 -22 2 -27 1 -17 -6 18 -11 21 -57 4 -71 -19 -16 -9 -28 19 -23 22 4 22 4 -1 -6 -13 -5 -28 -8 -33 -4 -13 8 -11 32 4 37 9 4 9 6 -1 6 -19 1 -36 -50 -20 -61 10 -6 10 -8 -2 -9 -8 -1 -19 0 -25 1 -5 1 -7 -2 -2 -6 12 -12 48 -15 61 -5 7 6 17 5 27 -2 16 -12 19 -18 19 -37 0 -5 4 -10 9 -10 6 0 6 12 1 31 -8 27 -6 32 10 36 19 5 25 16 21 36 -1 5 3 6 9 2 6 -4 7 -13 1 -23 -4 -9 -6 -23 -4 -29 3 -7 0 -13 -7 -13 -6 0 -8 5 -5 10 3 6 -1 10 -11 10 -14 0 -14 -2 -3 -16 9 -11 22 -14 43 -10 17 3 26 2 19 -2 -14 -9 -4 -27 16 -27 8 0 15 -14 17 -37 3 -39 -17 -55 -30 -23 -3 8 -2 15 3 15 5 0 11 10 14 23 6 22 6 22 -12 -2 -11 -14 -17 -31 -14 -38 3 -8 -2 -13 -12 -13 -11 0 -15 5 -11 15 3 9 -1 18 -9 21 -11 5 -12 9 -2 19 8 8 16 10 24 3 8 -6 10 -4 6 10 -2 10 -11 19 -18 19 -8 0 -12 -4 -9 -8 2 -4 -3 -12 -12 -17 -11 -6 -15 -18 -12 -34 3 -18 0 -24 -14 -25 -10 -1 -16 2 -13 7 3 5 -4 8 -15 7 -11 -1 -20 -2 -20 -3 0 -14 54 -93 61 -88 5 3 6 11 2 17 -4 7 0 6 10 -2 9 -7 15 -17 12 -21 -3 -5 1 -11 7 -14 7 -4 3 -4 -9 -2 -20 3 -21 1 -12 -15 5 -10 12 -19 15 -19 3 0 2 5 -1 10 -11 17 7 11 21 -7 10 -13 13 -14 9 -3 -4 11 2 16 17 17 16 2 19 0 10 -6 -8 -5 -14 -12 -13 -17 0 -5 -8 -9 -18 -8 -17 0 -17 -2 -3 -38 8 -20 19 -35 24 -32 4 3 5 10 2 16 -4 6 -2 8 4 5 5 -4 9 -19 7 -35 -1 -15 4 -39 11 -54 15 -30 27 -38 18 -13 -4 8 -2 15 4 15 14 0 23 -28 12 -35 -13 -8 -13 -25 1 -25 5 0 7 5 4 10 -6 10 31 29 50 25 6 -1 7 0 2 2 -4 3 -5 9 -1 14 3 5 1 9 -5 9 -6 0 -17 12 -25 28 -8 15 -15 23 -16 19 0 -5 5 -17 10 -28 7 -13 7 -19 0 -19 -5 0 -10 4 -10 10 0 5 -7 7 -15 4 -8 -4 -15 -1 -15 6 0 6 5 8 10 5 6 -3 10 -1 10 4 0 6 -4 11 -10 11 -5 0 -9 3 -9 8 5 30 -3 82 -11 77 -6 -4 -7 -12 -4 -18 5 -9 4 -9 -5 -1 -13 12 -4 47 10 38 9 -5 13 8 10 39 -1 9 4 17 13 17 13 0 14 -5 5 -26 -9 -25 -8 -26 8 -13 10 8 22 19 26 24 4 6 7 -1 5 -15 -2 -16 -9 -25 -20 -25 -9 0 -20 -4 -24 -8 -4 -4 -2 -7 4 -7 6 0 9 -6 6 -13 -2 -7 0 -24 6 -38 10 -22 10 -22 6 8 -3 18 -1 35 4 38 6 3 10 1 10 -6 0 -7 6 -4 14 6 8 11 11 26 9 35 -4 9 0 7 10 -5 13 -17 13 -21 -2 -33 -14 -12 -13 -13 9 -8 24 5 24 5 -5 -19 -17 -13 -24 -24 -17 -25 7 0 11 -4 7 -9 -3 -5 -1 -12 5 -16 6 -4 7 -11 4 -17 -4 -6 -12 -1 -20 13 -14 24 -19 14 -8 -15 8 -22 19 -20 45 7 12 12 19 16 15 9 -4 -7 -2 -20 5 -28 10 -12 9 -13 -5 -8 -11 4 -16 1 -16 -10 0 -13 4 -15 19 -7 10 6 22 7 26 3 5 -4 5 1 2 11 -17 43 -17 50 -1 23 16 -29 26 -114 13 -122 -3 -2 -15 4 -25 12 -10 9 -13 13 -6 9 6 -3 12 -1 12 4 0 15 -27 14 -33 -1 -5 -18 4 -48 15 -48 5 0 7 4 4 9 -4 5 3 7 14 4 16 -4 18 -8 9 -19 -7 -8 -9 -18 -5 -21 4 -4 11 -1 15 6 5 7 14 10 20 6 9 -5 9 -10 0 -21 -6 -8 -9 -17 -5 -21 3 -3 6 -1 6 6 0 7 5 9 10 6 8 -5 7 -11 -1 -21 -9 -11 -7 -14 15 -12 14 1 26 5 26 8 0 12 -18 31 -25 28 -10 -4 -16 32 -8 45 3 5 19 -21 34 -58 30 -70 39 -109 14 -63 -13 22 -21 26 -50 23 -19 -2 -35 1 -35 6 0 5 -10 10 -22 10 l-23 2 23 4 c27 5 27 11 3 41 -19 22 -38 31 -26 12 7 -11 -14 -55 -22 -46 -3 3 0 13 8 23 13 15 12 16 -6 9 -16 -6 -17 -5 -8 5 10 10 10 16 1 27 -9 10 -8 16 2 22 12 7 12 10 -2 15 -10 4 -14 13 -11 22 5 12 7 12 14 1 7 -11 9 -11 9 1 0 8 8 20 18 28 15 13 14 13 -8 2 -13 -7 -37 -12 -52 -11 -16 0 -26 -3 -23 -8 3 -5 1 -11 -5 -15 -5 -3 -10 -11 -10 -16 0 -6 4 -8 9 -4 6 3 15 -4 21 -16 8 -15 9 -19 1 -15 -6 4 -11 1 -11 -6 0 -7 -29 46 -64 118 -78 162 -159 308 -243 437 -35 54 -63 100 -63 104 0 3 7 2 16 -1 9 -3 12 -2 9 5 -4 6 -13 8 -20 5 -8 -3 -21 7 -31 22 -17 27 -17 27 3 10 31 -28 45 -21 17 7 -14 14 -29 23 -33 21 -4 -3 -44 43 -88 102 -44 59 -118 150 -163 202 -46 52 -90 103 -98 112 -12 15 -12 16 10 11 18 -4 20 -2 8 6 -8 5 -12 13 -8 16 3 3 13 -1 21 -10 16 -16 34 -4 22 15 -3 6 -2 10 4 10 5 0 12 -6 15 -12 3 -7 5 -4 3 6 -1 13 -11 20 -31 22 -15 2 -31 6 -35 10 -3 4 7 4 23 0 26 -6 28 -5 16 9 -11 13 -10 15 4 9 9 -3 16 -2 16 2 0 15 -17 36 -25 32 -5 -1 -9 5 -11 15 -2 15 1 15 27 -4 26 -18 28 -19 23 -2z m-6754 -1209 c0 6 7 12 16 12 8 0 12 -4 9 -10 -3 -6 1 -7 9 -4 9 3 16 1 16 -5 0 -6 -4 -11 -9 -11 -10 0 -9 -55 2 -66 9 -10 -23 -53 -52 -70 -23 -13 -23 -14 -3 -9 24 7 31 -9 7 -19 -8 -3 -15 -11 -15 -18 0 -9 3 -9 11 -1 15 15 39 5 39 -17 0 -22 -26 -45 -34 -31 -4 5 -2 12 4 16 5 3 10 12 10 18 0 8 -3 8 -8 2 -4 -5 -16 -12 -27 -13 -11 -2 -21 -5 -23 -7 -8 -7 -10 -45 -3 -50 5 -2 8 5 7 17 0 12 5 23 13 26 9 3 11 0 6 -8 -5 -8 -4 -11 2 -7 12 7 39 -20 30 -29 -3 -3 -2 -16 3 -29 9 -25 -17 -125 -32 -125 -5 0 -7 -4 -3 -9 3 -5 -9 -58 -26 -117 -17 -59 -46 -177 -64 -263 -18 -86 -34 -145 -34 -131 -1 15 -6 31 -12 37 -13 13 -39 6 -39 -11 0 -15 -54 -40 -58 -26 -2 5 -8 10 -14 10 -6 0 -8 -7 -4 -15 6 -17 -2 -19 -23 -6 -10 6 -10 13 -2 28 5 11 8 23 5 26 -3 3 0 32 7 65 12 59 13 60 46 60 25 0 33 -4 33 -18 0 -10 -7 -21 -16 -24 -8 -3 -12 -10 -9 -16 3 -5 -1 -10 -9 -10 -9 0 -16 8 -16 17 0 16 -11 13 -12 -4 0 -4 -4 -17 -8 -29 -6 -15 -4 -21 6 -21 9 0 13 6 10 14 -8 21 55 9 71 -13 12 -16 17 -12 14 9 -2 15 9 6 24 -20 l15 -28 -3 47 c-2 26 -1 45 3 43 9 -6 43 132 35 144 -3 6 -1 11 4 11 6 0 11 8 11 18 -1 19 -46 57 -54 44 -3 -5 -18 -7 -35 -4 -35 5 -37 37 -2 36 11 0 21 3 21 8 0 4 -5 8 -12 8 -6 0 -19 7 -29 16 -18 16 -16 38 7 61 7 7 10 23 8 35 -2 13 -2 17 2 11 3 -7 10 -13 15 -13 6 0 8 4 5 8 -3 5 8 6 25 4 18 -3 29 0 29 7 0 7 -5 9 -12 5 -8 -5 -7 0 2 11 8 10 10 16 4 12 -8 -4 -11 2 -10 17 1 18 4 22 14 14 9 -8 11 -7 6 6 -11 29 -40 13 -38 -22 1 -12 -1 -20 -5 -16 -3 3 -6 9 -6 12 0 4 -4 13 -9 20 -4 7 -6 14 -5 15 32 17 43 27 41 38 -2 7 3 16 10 20 10 7 9 9 -4 9 -10 0 -18 7 -18 15 0 8 4 15 10 15 5 0 7 7 4 15 -6 14 13 21 41 15 6 -1 4 4 -2 11 -17 17 -16 36 1 36 8 0 12 -6 9 -12 -3 -9 4 -11 21 -8 29 6 36 37 10 47 -8 3 -13 10 -9 15 3 6 -4 8 -15 6 -11 -2 -20 0 -20 6 0 5 5 9 11 9 5 0 7 6 3 13 -6 9 -5 9 7 0 12 -10 15 -7 14 20 -1 44 15 88 28 80 6 -3 7 -1 3 5 -4 7 -4 17 0 23 4 8 9 7 15 -2 6 -10 9 -11 9 -1z m7660 -230 c0 -4 -5 -10 -10 -13 -6 -4 -8 -11 -4 -16 3 -5 2 -9 -3 -8 -18 3 -33 -2 -33 -11 0 -5 6 -7 13 -4 7 2 27 -8 43 -23 32 -29 51 -73 31 -73 -6 0 -2 -7 9 -15 13 -11 14 -14 4 -13 -9 2 -15 -5 -15 -16 0 -11 7 -22 15 -24 13 -5 13 -3 0 13 -12 15 -12 17 -1 14 8 -3 18 -15 22 -28 6 -14 5 -20 -2 -16 -14 9 -41 -15 -35 -31 3 -8 0 -13 -6 -11 -6 1 -13 -4 -16 -12 -3 -10 0 -12 12 -8 9 4 16 1 16 -6 0 -20 -74 -16 -78 4 -2 9 4 19 13 23 10 3 14 2 9 -5 -3 -6 3 -5 14 2 12 7 18 17 15 22 -3 5 0 13 7 17 8 5 7 9 -4 13 -11 5 -16 1 -16 -13 0 -11 -4 -20 -10 -20 -5 0 -7 7 -3 16 5 14 3 14 -28 -1 l-34 -16 25 20 c14 11 30 21 35 21 6 0 2 5 -8 11 -13 8 -15 14 -7 30 7 13 7 25 1 38 -12 22 -5 31 22 31 11 0 17 3 13 7 -13 13 -51 8 -70 -9 -18 -16 -46 -14 -46 4 0 5 4 7 8 4 4 -2 14 0 22 5 12 8 11 9 -5 7 -14 -2 -21 3 -23 19 -2 16 1 21 10 18 18 -7 42 10 33 24 -5 8 -11 9 -19 2 -15 -13 -26 -4 -26 21 0 11 7 18 20 18 11 0 20 -4 20 -10 0 -5 5 -10 12 -10 6 0 8 3 5 7 -4 3 -2 12 4 19 8 10 15 11 30 1 10 -6 19 -15 19 -19z m-4560 -259 c0 -38 43 -515 56 -614 44 -354 117 -633 219 -835 57 -114 92 -160 120 -160 44 0 48 19 70 372 21 320 47 544 90 751 33 164 63 282 70 275 2 -2 22 -100 45 -218 86 -447 186 -795 298 -1042 36 -79 108 -194 164 -261 22 -27 39 -49 37 -50 -60 -39 -80 -61 -77 -85 3 -29 27 -34 77 -18 21 7 23 6 16 -10 -4 -11 -10 -71 -12 -135 -7 -145 12 -232 67 -318 65 -100 193 -180 329 -203 180 -31 395 69 502 234 53 83 73 166 67 281 l-5 93 81 -33 c44 -17 103 -37 130 -44 48 -11 50 -11 73 15 27 32 28 47 8 85 -34 66 -218 198 -356 255 -214 88 -577 120 -785 70 -21 -5 -22 -2 -28 163 -10 223 13 790 41 1006 3 28 10 46 17 44 44 -14 190 -287 247 -462 46 -143 95 -264 115 -286 73 -81 138 92 244 656 23 121 44 228 47 238 4 15 13 6 40 -39 122 -202 195 -446 237 -794 22 -189 29 -280 19 -280 -5 0 -62 18 -126 39 -169 57 -262 78 -432 97 -162 18 -304 15 -370 -7 -47 -17 -76 -58 -56 -82 10 -13 41 -15 169 -15 264 1 413 -24 681 -115 l153 -52 -6 -92 c-7 -84 -5 -94 13 -112 34 -34 62 -26 128 34 34 30 70 55 81 55 32 0 55 29 48 61 -4 23 3 37 41 80 26 28 49 47 51 41 4 -13 -69 -362 -119 -563 -44 -178 -134 -509 -179 -655 -17 -54 -37 -125 -45 -157 -13 -55 -12 -60 6 -78 18 -18 22 -18 56 -4 52 22 118 79 171 147 25 32 49 58 54 58 25 0 -6 -110 -65 -225 -123 -244 -374 -478 -671 -627 -356 -179 -642 -244 -1118 -255 -350 -8 -556 14 -857 93 -247 64 -433 146 -623 273 -240 160 -462 423 -521 616 -35 114 -35 114 43 44 119 -107 185 -143 219 -122 28 17 23 54 -24 198 -114 349 -212 693 -266 930 -40 181 -68 335 -60 335 16 -2 96 -114 94 -132 -5 -34 15 -58 49 -58 23 0 44 -13 90 -55 32 -30 67 -55 77 -55 37 0 50 31 53 125 l3 89 114 44 c248 95 397 120 744 129 226 6 238 7 249 26 40 75 -229 118 -512 83 -192 -25 -266 -41 -431 -97 -80 -27 -151 -49 -158 -49 -14 0 -13 12 20 270 45 347 111 584 216 779 l50 91 32 -197 c68 -413 153 -711 208 -725 49 -13 62 15 107 222 20 91 46 208 57 260 32 143 103 353 157 460 77 153 142 244 142 199z m-3314 -481 c-1 -7 -6 -19 -10 -27 -6 -9 -5 -12 1 -8 6 4 13 0 17 -8 3 -10 -1 -15 -12 -16 -14 0 -14 -2 3 -9 11 -5 14 -9 7 -9 -25 -2 -72 -42 -87 -74 -9 -18 -13 -24 -10 -14 2 9 0 17 -5 17 -6 0 -10 -15 -10 -32 0 -25 3 -29 10 -18 7 11 10 11 10 2 0 -7 5 -10 10 -7 6 4 8 10 5 14 -2 5 2 17 10 27 14 18 14 18 15 1 0 -10 4 -16 9 -12 15 8 35 -35 37 -80 2 -38 -10 -60 -28 -49 -11 7 -10 34 2 34 5 0 7 -8 3 -17 -5 -14 -3 -15 6 -7 10 9 10 17 1 33 -6 12 -15 19 -21 16 -5 -4 -7 -10 -4 -15 3 -5 1 -11 -5 -15 -7 -4 -7 -12 0 -25 9 -16 8 -18 -6 -13 -14 5 -15 3 -4 -18 17 -33 22 -37 18 -15 -1 10 3 21 10 23 6 3 12 0 12 -7 0 -6 4 -9 10 -5 10 6 6 -47 -5 -65 -3 -5 -2 -10 2 -10 16 0 9 -36 -7 -37 -9 -1 -17 5 -17 12 0 8 4 12 8 9 4 -2 7 5 6 16 -2 26 -4 25 -35 -9 -28 -30 -41 -58 -22 -46 5 3 10 1 10 -4 0 -6 -7 -11 -15 -11 -8 0 -15 -8 -15 -17 0 -15 2 -16 10 -3 7 11 10 11 10 2 0 -7 6 -10 13 -7 6 4 4 0 -5 -8 -17 -13 -16 -15 5 -26 12 -6 15 -10 7 -7 -11 2 -19 -7 -26 -30 -6 -19 -7 -34 -3 -34 5 0 9 -9 9 -20 0 -14 -7 -20 -21 -20 -12 0 -19 5 -16 13 2 6 10 11 16 9 7 -1 10 2 6 8 -3 6 -11 7 -17 4 -6 -4 -4 3 5 17 22 31 22 33 -10 65 -24 24 -25 28 -11 38 15 11 15 13 -3 24 -18 12 -27 52 -11 52 4 0 7 26 7 57 0 40 4 57 12 56 7 -2 10 4 7 12 -4 8 -9 13 -13 11 -6 -4 1 79 13 156 3 21 16 36 16 20 0 -7 5 -12 11 -12 6 0 8 8 4 19 -3 10 1 23 9 30 17 14 40 5 30 -11 -4 -7 -2 -8 4 -4 20 12 13 30 -14 43 -32 15 -48 8 -41 -18 3 -10 2 -21 -2 -24 -5 -2 -7 8 -6 23 4 53 3 52 36 40 16 -6 33 -8 36 -4 4 3 0 6 -7 6 -9 0 -7 5 6 15 24 18 33 19 30 3z m7963 -285 c9 2 15 9 14 15 -2 7 2 12 8 12 6 0 9 -7 6 -15 -8 -19 5 -26 23 -14 10 5 10 9 3 9 -6 0 -10 9 -8 19 2 11 -3 25 -11 32 -11 9 -14 8 -14 -5 0 -9 -4 -16 -9 -16 -5 0 -12 -8 -14 -17 -3 -10 -4 -6 -4 10 1 15 6 27 12 27 5 0 3 5 -5 10 -8 5 -10 10 -5 10 6 0 3 5 -5 10 -8 5 -10 10 -4 10 6 0 23 -9 37 -20 14 -11 30 -20 36 -20 6 0 11 -5 11 -12 0 -6 7 -3 15 8 12 17 12 20 0 30 -8 6 -15 15 -15 19 0 4 7 2 15 -5 8 -6 20 -8 26 -4 8 5 9 3 4 -6 -4 -7 -2 -16 6 -22 11 -8 10 -8 -4 -4 -12 4 -17 2 -14 -6 2 -7 9 -12 15 -11 8 2 9 -5 2 -21 -5 -13 -6 -27 -3 -30 3 -3 -4 -4 -15 -1 -12 2 -25 -1 -28 -7 -4 -7 -2 -8 4 -4 7 4 16 -3 21 -18 6 -13 18 -29 28 -34 10 -6 14 -14 10 -18 -4 -4 -14 2 -23 14 -8 12 -20 20 -25 16 -6 -3 -3 -12 8 -19 17 -13 16 -14 -4 -8 -14 3 -23 1 -23 -6 0 -7 4 -10 8 -7 4 2 14 0 22 -5 13 -8 12 -9 -2 -7 -9 2 -24 -6 -33 -17 -16 -19 -16 -19 -11 7 3 14 9 33 12 41 4 12 0 14 -16 10 -12 -3 -17 -9 -12 -12 6 -3 9 -23 7 -44 -2 -20 0 -35 5 -32 4 3 10 -1 13 -8 3 -7 -6 -13 -24 -14 -16 -1 -29 2 -29 8 0 6 6 7 13 3 8 -5 8 -2 -2 9 -11 14 -11 17 0 17 10 1 9 4 -3 14 -18 13 -26 32 -10 22 4 -2 14 -1 22 5 13 7 12 9 -1 9 -23 0 -31 26 -13 40 11 10 14 10 14 -1 0 -12 2 -12 9 0 5 8 16 11 30 6 16 -5 21 -2 21 11 0 10 -3 14 -7 11 -3 -4 -12 -2 -18 3 -9 7 -22 5 -44 -7 -28 -17 -31 -23 -32 -73 -2 -50 -3 -47 -9 25 -4 44 -10 114 -13 155 l-5 75 10 -78 c9 -63 14 -77 27 -74z m-7951 -510 c-2 -69 -7 -119 -13 -119 -27 -4 -54 -17 -50 -25 3 -4 12 -6 20 -2 9 3 15 -1 15 -11 0 -9 5 -16 11 -16 5 0 7 -5 4 -10 -4 -6 -20 0 -39 15 -33 25 -34 25 -39 4 -5 -18 -2 -20 19 -15 18 5 24 2 24 -9 0 -11 -7 -14 -22 -12 -36 6 -58 18 -52 28 7 13 -16 40 -27 33 -5 -3 -9 9 -9 25 0 18 5 31 13 31 9 0 9 2 0 8 -7 4 -11 32 -10 72 1 36 3 57 5 48 2 -10 8 -18 13 -18 6 0 8 -4 5 -9 -3 -5 9 -8 28 -7 19 1 34 -3 33 -9 -1 -5 6 -9 15 -9 10 1 14 -4 11 -12 -3 -8 -9 -11 -14 -8 -5 3 -9 1 -9 -5 0 -5 8 -12 18 -14 12 -3 11 -5 -6 -6 -19 -1 -23 4 -20 21 2 16 -3 23 -17 25 -11 1 -14 0 -7 -3 6 -3 10 -10 7 -15 -3 -5 -1 -18 5 -29 6 -11 7 -20 1 -20 -12 0 -9 -49 4 -54 16 -6 61 14 49 22 -7 4 -8 15 -3 27 7 19 8 19 8 -2 1 -13 6 -23 11 -23 7 0 10 66 10 193 0 105 0 206 2 222 4 52 9 -188 6 -312z m32 -374 c24 -190 59 -372 104 -543 27 -98 32 -134 25 -153 -5 -14 -7 -28 -4 -31 2 -3 8 5 13 17 6 18 13 7 35 -63 22 -67 105 -281 133 -343 4 -8 -1 -13 -12 -13 -13 0 -15 3 -7 8 7 4 9 13 4 21 -6 10 -11 9 -24 -3 -14 -14 -16 -14 -29 1 -7 9 -8 14 -3 11 17 -10 45 16 34 33 -7 11 -9 11 -9 -3 0 -20 -25 -24 -36 -6 -5 8 -2 9 11 4 15 -5 16 -4 6 8 -14 17 -37 12 -45 -10 -3 -9 -1 -12 4 -9 20 13 32 -7 15 -25 -9 -10 -14 -23 -11 -28 3 -5 -4 -12 -15 -15 -15 -4 -19 -11 -14 -25 3 -11 1 -23 -5 -27 -5 -3 -11 -1 -11 4 -1 6 -2 17 -3 24 -1 6 2 17 6 23 6 8 3 11 -8 10 -10 0 -21 10 -27 29 -6 16 -16 36 -24 43 -16 16 -17 42 -2 42 5 0 8 -4 5 -8 -2 -4 0 -14 5 -22 7 -12 8 -11 6 5 -1 11 -6 26 -10 33 -6 8 -2 12 10 13 16 0 16 1 -2 8 -11 5 -25 6 -32 4 -7 -3 -16 11 -22 34 -14 50 -14 53 7 70 15 13 15 13 -5 4 -22 -11 -40 0 -29 18 4 5 2 11 -3 13 -4 1 -12 14 -16 27 -4 15 -3 21 3 17 5 -3 13 1 16 10 5 12 1 14 -15 9 -15 -5 -19 -4 -14 4 4 7 1 20 -6 29 -13 16 -12 16 6 0 15 -12 24 -14 35 -7 12 9 12 10 -2 5 -12 -3 -18 0 -18 9 0 8 -9 15 -19 15 -15 0 -21 10 -27 43 -5 23 -8 48 -7 54 0 7 -3 11 -7 8 -7 -4 -23 54 -25 90 0 6 -4 15 -8 22 -7 11 8 27 25 28 3 0 10 4 15 9 5 5 -1 7 -14 3 -18 -4 -23 -1 -23 13 0 11 -5 22 -11 25 -6 4 -8 14 -5 22 3 8 1 11 -4 8 -6 -3 -10 0 -10 7 0 7 -3 24 -7 37 -5 21 -3 23 13 18 16 -6 16 -4 -3 12 -21 18 -26 30 -37 101 -4 25 -3 31 4 20 8 -13 10 -12 10 3 0 9 -5 17 -11 17 -6 0 -8 7 -5 16 3 8 2 13 -3 10 -4 -3 -8 7 -9 22 0 15 -3 46 -5 70 -3 25 -2 40 4 37 5 -4 9 -2 9 3 0 6 -7 12 -15 16 -8 3 -15 13 -15 21 0 9 5 13 10 10 6 -3 10 -1 10 4 0 6 -5 11 -11 11 -5 0 -7 5 -4 10 4 6 2 16 -3 23 -15 18 -18 135 -4 149 9 9 12 9 12 0 0 -7 -6 -12 -12 -13 -7 0 -3 -5 10 -11 12 -6 22 -15 22 -21 0 -5 7 -6 16 -3 12 4 14 1 9 -14 -5 -14 -3 -18 8 -14 7 2 20 -2 27 -11 7 -8 11 -15 9 -16 -31 -6 -40 -5 -50 7 -9 11 -14 12 -20 3 -4 -7 -1 -18 6 -25 7 -8 15 -19 18 -26 2 -7 8 -10 12 -6 4 4 3 14 -3 21 -9 10 -8 14 3 14 16 0 19 -15 9 -40 -3 -9 -15 -13 -32 -11 l-27 4 25 -9 c14 -5 19 -9 13 -10 -7 -1 -13 -8 -13 -16 0 -8 -8 -16 -17 -16 -17 -1 -17 -2 0 -6 20 -5 21 -16 5 -42 -6 -11 -8 -26 -3 -37 5 -11 7 -23 6 -27 -1 -5 3 -6 9 -2 6 3 7 12 3 18 -13 21 -12 37 3 37 9 0 13 4 10 8 -7 12 39 63 49 54 5 -4 5 -2 1 5 -8 14 -36 6 -36 -10 0 -8 -3 -8 -11 0 -14 14 -2 36 13 27 7 -4 8 -2 4 4 -4 7 -2 12 3 12 6 0 11 13 11 29 0 35 8 41 35 30 11 -4 14 -8 7 -8 -7 -1 -10 -5 -7 -11 3 -5 0 -10 -7 -10 -8 0 -9 -3 -3 -8 6 -4 11 -20 11 -37 3 -46 3 -47 17 -39 14 9 -10 -25 -31 -43 -12 -10 -11 -12 7 -10 11 1 21 7 21 14 0 7 5 13 10 13 6 0 10 16 10 36 0 24 -4 33 -12 28 -8 -5 -9 -2 -4 11 11 29 -5 196 -18 188 -6 -4 -4 2 4 12 14 17 15 15 18 -31 1 -27 11 -119 22 -205z m5131 -52 c52 -14 130 -39 172 -57 77 -32 203 -107 195 -116 -3 -2 -56 18 -119 45 -212 91 -354 121 -559 120 -88 0 -146 -6 -195 -19 -59 -15 -72 -16 -84 -5 -12 12 -10 16 15 25 121 48 408 51 575 7z m-3603 -153 c49 -16 50 -17 67 -78 39 -139 208 -526 266 -607 l22 -32 -23 -17 c-75 -56 -322 -76 -445 -35 -125 41 -242 148 -285 262 -81 213 21 453 220 514 43 13 126 10 178 -7z m5017 -13 c71 -34 114 -76 150 -149 124 -247 -34 -539 -332 -617 -71 -19 -202 -19 -268 -1 -42 12 -163 61 -173 71 -2 1 19 41 45 89 126 224 165 301 217 421 80 185 75 178 131 197 79 27 159 23 230 -11z m1281 -191 c-6 -40 -6 -41 15 -29 17 9 19 13 8 20 -11 7 -10 9 4 9 23 0 21 -12 -7 -43 -17 -18 -26 -22 -30 -14 -3 7 -5 1 -4 -13 1 -14 -4 -35 -11 -48 -15 -28 -7 -62 11 -44 7 7 21 12 32 12 17 0 18 2 4 18 -25 28 -29 50 -10 54 23 5 53 -3 47 -12 -3 -4 1 -10 8 -13 8 -3 14 4 15 20 1 18 -2 24 -12 20 -8 -3 -16 2 -19 15 -5 17 -2 19 18 14 18 -5 29 1 45 21 18 23 21 25 18 8 -2 -12 2 -19 10 -17 13 2 16 -10 5 -22 -5 -4 -8 -13 -8 -19 0 -7 -8 -11 -16 -9 -9 1 -22 -5 -29 -13 -7 -8 -9 -15 -5 -15 4 0 2 -6 -4 -14 -10 -11 -9 -14 1 -12 7 1 19 5 26 10 7 4 16 5 19 2 4 -3 1 -6 -6 -6 -7 0 -11 -7 -8 -15 4 -8 2 -17 -2 -20 -5 -3 -7 -15 -4 -28 3 -12 1 -18 -4 -12 -4 6 -12 13 -16 16 -4 4 -1 14 8 22 14 14 13 16 -4 14 -11 0 -17 -5 -15 -9 3 -4 0 -8 -6 -8 -6 0 -9 -4 -5 -9 3 -5 1 -12 -5 -16 -5 -3 -10 -15 -10 -26 0 -10 -4 -19 -10 -19 -5 0 -7 6 -4 14 3 8 1 17 -5 20 -6 4 -8 13 -5 21 4 8 10 13 14 10 4 -3 10 6 12 18 3 15 0 24 -9 24 -7 0 -12 -5 -11 -11 3 -20 -14 -46 -26 -39 -6 4 -5 -1 3 -10 11 -14 11 -17 0 -18 -10 0 -10 -2 -2 -6 9 -3 8 -11 -5 -31 -13 -20 -13 -24 -2 -16 24 18 69 23 81 8 9 -11 7 -14 -7 -15 -19 -2 -42 -5 -57 -8 -9 -1 18 -31 29 -31 3 0 0 8 -7 18 -12 15 -12 16 2 5 9 -7 18 -11 20 -9 9 9 1 -63 -11 -100 -27 -84 -37 -96 -77 -97 -7 0 -9 -5 -6 -10 4 -6 0 -8 -9 -5 -10 4 -15 0 -15 -10 0 -40 -4 -53 -13 -47 -5 3 -10 2 -10 -4 0 -14 21 -25 29 -15 3 5 14 10 25 12 14 3 17 -1 12 -13 -3 -9 -6 -20 -6 -25 0 -5 -12 -13 -27 -18 -18 -7 -22 -11 -10 -11 9 -1 17 -5 17 -11 0 -5 -7 -6 -17 -3 -11 5 -14 3 -8 -6 6 -10 -2 -12 -34 -7 -23 3 -39 2 -36 -3 3 -5 -5 -7 -17 -3 -13 3 -19 1 -15 -6 4 -5 1 -12 -5 -15 -8 -3 -3 -9 12 -16 23 -10 23 -11 3 -7 -13 2 -23 0 -23 -5 0 -8 22 -13 43 -10 11 2 9 -17 -3 -24 -5 -3 -10 -1 -10 4 0 6 -4 11 -10 11 -5 0 -7 -8 -4 -17 5 -16 4 -16 -5 -2 -6 9 -21 15 -34 14 -14 -2 -24 2 -24 11 0 7 4 11 9 8 13 -8 38 15 32 31 -3 7 4 19 15 27 12 8 18 18 14 22 -4 4 1 4 11 0 13 -5 17 -4 13 3 -4 7 5 14 22 18 30 6 48 30 31 40 -6 4 -15 3 -21 -1 -8 -4 -7 -9 2 -15 10 -6 8 -9 -8 -9 -16 0 -23 6 -23 20 0 13 7 20 19 20 13 0 18 6 16 18 -1 9 2 23 8 30 7 9 6 11 -8 6 -15 -6 -17 -3 -13 14 5 16 0 25 -14 33 -19 10 -20 9 -15 -10 3 -12 1 -19 -3 -16 -11 7 -23 -31 -15 -45 4 -6 10 -8 14 -6 4 3 5 -8 3 -25 -2 -16 -8 -32 -13 -35 -5 -3 -8 0 -7 7 2 6 -3 14 -11 17 -10 3 -12 0 -8 -12 4 -9 3 -15 -2 -12 -12 8 -35 -50 -25 -65 4 -7 3 -10 -3 -6 -14 9 -44 -67 -37 -90 5 -15 4 -16 -5 -3 -9 13 -11 13 -11 -2 0 -10 -4 -18 -9 -18 -8 0 75 210 88 220 3 3 7 12 8 20 1 8 26 90 56 181 31 92 68 219 84 283 28 117 41 150 29 76z m-2992 -1798 c-42 -132 -72 -190 -104 -207 -95 -49 -349 -93 -576 -102 l-181 -6 -6 33 c-8 39 -7 164 2 205 l6 30 155 12 c275 20 482 56 650 111 47 15 86 28 86 27 1 0 -13 -46 -32 -103z m-1609 34 c175 -41 451 -76 608 -76 l57 0 0 -137 0 -136 -157 6 c-175 7 -294 24 -456 63 l-108 27 -24 46 c-21 42 -75 210 -75 234 0 5 10 7 23 4 12 -3 72 -17 132 -31z m3494 -193 c-8 -10 -19 -22 -26 -28 -15 -12 -11 -47 7 -53 7 -3 10 0 6 7 -6 10 0 13 20 10 4 0 11 5 16 13 8 11 10 11 15 0 4 -11 7 -10 17 1 7 9 20 11 41 6 17 -3 22 -7 13 -8 -10 0 -18 -5 -18 -10 0 -5 11 -8 24 -7 26 3 43 -19 24 -30 -7 -5 -8 -2 -3 5 5 10 -2 12 -29 8 -23 -3 -36 -1 -37 7 0 7 -2 7 -6 -1 -6 -16 -43 -17 -43 -2 0 5 6 7 13 3 6 -4 8 -3 4 1 -16 18 -38 14 -32 -5 6 -20 -10 -36 -20 -20 -5 8 -11 7 -21 -1 -8 -6 -17 -9 -21 -5 -3 3 -2 6 4 6 6 0 10 11 9 25 -1 31 -4 31 -38 -2 -33 -32 -35 -43 -7 -43 11 0 17 -4 14 -10 -4 -6 -21 -9 -37 -7 -23 2 -39 -4 -61 -24 l-29 -27 21 -23 c11 -13 21 -20 21 -17 0 4 14 -7 30 -24 17 -16 30 -37 29 -46 0 -14 -2 -13 -9 3 -7 17 -9 16 -9 -9 -1 -38 -10 -29 -13 12 -1 21 -7 31 -15 28 -7 -3 -10 1 -6 10 3 7 1 14 -4 14 -14 0 -37 -46 -29 -58 3 -6 3 -17 0 -26 -6 -15 -8 -15 -20 1 -16 21 -19 47 -4 38 6 -3 10 3 10 15 0 12 5 18 10 15 6 -3 10 -1 10 4 0 6 -5 11 -12 11 -6 0 -19 6 -27 14 -14 13 -19 12 -40 -5 l-23 -19 27 0 c27 0 27 -1 11 -19 -18 -20 -31 -21 -54 -7 -14 8 -42 -9 -42 -26 0 -6 8 -4 17 3 13 11 13 9 -2 -15 l-19 -29 -7 24 c-5 17 -7 19 -8 6 -1 -11 -6 -15 -12 -11 -8 4 -9 -1 -4 -17 5 -19 4 -21 -4 -9 -8 11 -11 12 -11 2 0 -7 -4 -10 -10 -7 -5 3 -10 1 -10 -5 0 -6 -4 -9 -8 -6 -4 2 -14 0 -22 -6 -12 -8 -12 -9 3 -4 9 3 17 1 17 -4 0 -6 -5 -10 -11 -10 -8 0 -8 -5 1 -15 10 -12 9 -15 -4 -15 -9 0 -19 7 -22 15 -4 8 -10 15 -16 15 -5 0 -6 -5 -2 -12 4 -6 3 -8 -3 -5 -6 4 -18 0 -28 -7 -18 -13 -17 -14 13 -21 18 -3 32 -11 32 -16 0 -6 -5 -7 -12 -3 -7 5 -8 3 -3 -6 6 -10 10 -10 20 3 11 15 13 15 29 -1 17 -16 18 -16 12 4 -4 14 -2 21 7 21 8 0 12 -11 11 -29 -1 -16 0 -27 4 -24 3 3 11 1 19 -5 10 -9 17 -8 31 2 15 13 16 12 3 -4 -8 -10 -21 -15 -32 -12 -9 3 -21 0 -25 -6 -4 -8 -3 -9 4 -5 7 4 12 4 12 -1 0 -9 -134 -103 -147 -103 -4 0 -2 4 5 9 10 6 0 12 -31 22 -44 12 -54 25 -32 41 6 5 4 8 -5 8 -9 1 -5 6 9 14 14 8 32 11 40 8 13 -4 13 -2 4 8 -6 7 -9 19 -6 26 4 10 0 12 -11 8 -9 -3 -16 -12 -16 -19 0 -16 -18 -30 -27 -21 -3 3 2 17 12 32 l17 27 -25 -19 c-14 -11 -22 -25 -19 -34 5 -12 3 -13 -9 -3 -13 10 -19 10 -35 -2 -19 -15 -19 -15 1 -13 14 2 21 -4 23 -19 2 -13 -2 -23 -8 -23 -7 0 -10 7 -6 15 4 11 -1 15 -17 15 -18 0 -19 -2 -7 -10 8 -5 11 -10 6 -10 -5 0 -5 -6 0 -13 5 -7 -2 -1 -14 13 -16 17 -25 21 -29 13 -2 -7 -11 -13 -19 -13 -8 0 -14 -5 -14 -12 0 -6 -3 -8 -6 -5 -4 3 -16 1 -27 -4 -15 -9 -17 -13 -6 -19 7 -5 21 -4 31 1 20 11 20 12 23 -18 1 -13 -4 -28 -11 -34 -11 -9 -14 -8 -14 2 0 8 -6 6 -16 -7 -8 -10 -12 -13 -8 -5 5 9 3 12 -4 7 -18 -11 -14 -22 11 -34 14 -7 16 -11 7 -11 -8 -1 -27 -14 -42 -30 -27 -29 -27 -29 -6 -34 12 -4 24 -4 27 -2 2 3 -1 5 -7 5 -7 0 -12 5 -12 11 0 5 5 7 12 3 6 -4 8 -3 5 3 -8 12 20 39 30 29 3 -3 1 -6 -6 -6 -7 0 -10 -4 -7 -9 15 -24 -45 -73 -92 -75 -7 -1 -17 -8 -22 -16 -7 -12 -9 -10 -7 7 0 12 5 19 9 17 4 -3 8 1 9 8 0 10 2 10 6 1 9 -23 19 -14 19 16 0 17 -3 28 -8 25 -4 -3 -8 5 -8 18 0 14 3 19 8 11 5 -8 13 -9 22 -3 11 7 12 10 2 10 -7 0 -10 5 -7 10 5 8 11 8 20 0 9 -8 15 -8 20 0 4 6 3 10 -2 9 -20 -4 -27 2 -13 12 12 9 12 10 -4 5 -13 -5 -17 -2 -12 9 3 8 2 15 -3 15 -16 0 -21 -13 -10 -27 15 -18 1 -17 -17 1 -9 9 -10 17 -4 21 5 3 10 12 10 18 0 7 -4 6 -10 -3 -5 -8 -10 -10 -10 -5 0 6 -5 2 -11 -7 -5 -9 -16 -15 -23 -12 -9 4 -13 -4 -12 -28 2 -27 6 -33 23 -32 12 0 20 -3 17 -8 -3 -4 -13 -8 -22 -8 -23 0 -2 -17 28 -23 24 -4 24 -4 -2 -6 -19 -1 -29 -7 -30 -18 0 -10 -2 -24 -2 -32 -1 -7 -10 -20 -22 -27 -18 -12 -21 -12 -21 1 0 8 7 14 16 13 10 -2 15 3 13 14 -2 10 2 27 8 37 7 13 7 22 0 26 -6 4 -8 10 -5 15 3 5 1 11 -5 15 -5 3 -10 1 -10 -5 0 -6 -5 -8 -11 -5 -6 5 -4 12 8 21 17 13 17 14 -2 7 -18 -6 -18 -5 -6 10 8 10 11 20 7 24 -3 3 47 36 111 73 65 36 148 85 185 109 38 24 73 39 79 35 7 -4 9 -3 5 4 -3 6 29 35 76 68 92 64 307 233 327 258 11 13 16 14 29 4 13 -11 14 -11 8 1 -6 9 11 33 55 77 62 63 85 81 58 47z m-5336 -185 c-2 -4 3 -7 10 -5 6 1 11 -4 9 -11 -1 -8 2 -11 7 -8 5 3 42 -21 83 -53 40 -32 117 -88 171 -125 53 -37 97 -72 97 -77 0 -6 -7 -3 -16 6 -11 11 -20 13 -28 5 -7 -5 -17 -6 -21 -2 -5 4 -5 1 -1 -6 5 -8 16 -10 29 -7 13 4 17 3 10 -2 -13 -9 -12 -24 5 -66 15 -36 15 -37 -3 -37 -8 0 -14 5 -13 12 2 6 -5 14 -14 16 -11 2 -18 -2 -18 -12 0 -9 -7 -16 -17 -16 -9 0 -13 3 -10 7 4 3 2 11 -3 18 -7 8 1 11 30 11 40 -1 53 10 25 20 -8 4 -15 10 -15 16 0 5 5 6 12 2 7 -4 8 -3 4 5 -4 6 -12 9 -17 6 -5 -4 -9 -3 -9 2 0 4 -3 19 -7 33 -6 22 -5 23 9 12 10 -8 19 -9 22 -4 3 6 -5 17 -19 26 -29 19 -33 20 -32 4 1 -45 -4 -69 -15 -62 -7 4 -8 3 -4 -5 4 -6 10 -9 14 -7 4 2 12 -2 19 -9 9 -10 0 -12 -40 -11 -55 1 -78 16 -72 48 3 12 -2 18 -13 18 -15 0 -15 2 -2 11 12 8 12 9 -5 7 -11 -2 -20 2 -20 7 0 6 -4 16 -9 24 -6 10 -5 16 3 19 9 3 9 8 -1 20 -12 15 -11 15 4 4 9 -8 14 -20 11 -28 -4 -10 0 -12 11 -8 19 7 20 15 4 34 -7 8 -3 6 10 -4 26 -22 28 -15 6 19 -9 14 -21 22 -27 18 -6 -4 -7 -1 -2 7 6 10 4 12 -9 7 -11 -4 -15 -3 -11 4 4 6 -2 13 -14 16 -12 3 -21 9 -21 14 0 8 -38 4 -48 -5 -3 -3 7 -10 21 -15 17 -7 25 -16 21 -25 -3 -8 -12 -12 -19 -10 -7 3 -16 1 -19 -5 -5 -7 -14 -7 -31 1 -14 6 -21 16 -18 22 4 6 -5 0 -19 -14 -18 -17 -23 -27 -15 -32 6 -4 17 -2 24 4 7 6 13 7 13 2 0 -5 14 -9 30 -9 17 -1 30 2 30 5 0 3 11 5 23 5 17 0 23 -5 20 -16 -3 -9 1 -22 9 -30 21 -23 21 -41 -1 -34 -25 8 -35 -9 -16 -28 23 -24 18 -30 -9 -10 -19 14 -22 21 -13 32 10 12 9 14 -3 9 -12 -4 -16 1 -16 19 l0 24 17 -22 c20 -26 35 -10 19 21 -14 25 -24 25 -49 -1 -24 -26 -51 -19 -84 21 -14 16 -28 26 -32 22 -5 -4 -5 -1 -1 6 4 7 13 9 19 5 8 -5 8 -2 0 9 -16 19 -5 32 14 16 11 -9 13 -8 11 2 -5 25 31 23 41 -2 6 -13 10 -17 10 -10 1 6 6 12 12 12 5 0 7 -6 3 -12 -5 -10 -4 -10 6 -1 10 9 7 20 -19 54 -17 24 -31 36 -32 28 0 -8 -2 -9 -5 -3 -3 7 -15 10 -27 8 -21 -4 -21 -4 -2 5 11 5 16 10 11 10 -5 1 -3 8 4 16 10 13 10 19 -5 35 -10 11 -22 17 -28 13 -6 -3 -7 -1 -3 5 4 7 2 12 -3 12 -6 0 -11 5 -11 11 0 6 17 -4 38 -22 20 -18 36 -37 35 -41z m3410 -83 c59 -203 137 -592 137 -682 l0 -31 47 14 c48 15 81 18 71 8 -4 -3 -28 -12 -55 -19 -26 -7 -39 -14 -28 -14 16 -1 17 -3 6 -10 -9 -6 -19 -4 -29 6 -10 9 -25 13 -41 9 -231 -49 -497 -94 -505 -85 -2 2 -11 87 -20 189 -22 236 -52 452 -72 512 -8 25 -33 67 -55 91 l-39 46 57 6 c188 20 452 71 472 91 10 10 21 -16 54 -131z m-1478 84 c148 -31 328 -49 555 -55 118 -3 225 -7 238 -10 31 -6 100 -70 122 -114 33 -64 69 -318 86 -607 l7 -111 -49 -8 c-79 -14 -577 -10 -699 4 -187 22 -315 42 -435 68 -161 35 -150 30 -150 72 0 100 119 649 164 756 14 35 18 38 43 31 16 -4 69 -16 118 -26z m2130 -649 c-33 -16 -65 -30 -71 -30 -14 0 -6 -47 9 -57 6 -3 7 -1 3 5 -4 7 -4 12 -1 12 7 0 35 -26 35 -32 0 -2 -26 -3 -57 -4 -33 -1 -59 -6 -61 -13 -2 -6 -8 -8 -14 -5 -7 5 -9 -3 -4 -22 5 -23 4 -26 -4 -11 -11 17 -4 64 7 53 3 -3 14 -1 25 5 15 8 17 13 7 25 -17 20 -40 18 -33 -3 4 -13 3 -14 -3 -5 -14 19 -37 5 -51 -30 -12 -33 -8 -53 10 -42 7 4 8 2 4 -5 -4 -6 -12 -9 -17 -6 -5 4 -17 1 -26 -4 -10 -6 -12 -11 -5 -11 6 0 12 -5 12 -12 0 -9 -3 -9 -12 0 -15 15 -32 16 -23 2 4 -6 3 -10 -2 -9 -19 3 -33 -2 -33 -12 0 -6 9 -8 20 -4 16 5 20 2 20 -14 0 -13 7 -21 18 -22 13 0 12 -2 -5 -9 -23 -10 -74 -6 -94 5 -8 6 -8 2 0 -14 9 -16 9 -21 -2 -21 -13 0 -14 5 -21 80 -2 27 -9 46 -17 48 -11 3 -11 1 -2 -5 10 -7 10 -13 -2 -29 -8 -10 -15 -32 -15 -48 0 -16 -3 -26 -7 -22 -11 11 -13 45 -3 51 7 4 6 13 0 26 -8 14 -7 19 2 20 7 1 2 5 -12 9 -25 8 -25 8 5 10 17 1 39 5 50 10 l20 9 -20 1 c-11 0 52 25 140 54 88 30 185 66 215 80 76 35 89 31 15 -4z m-3021 -22 c-2 -4 0 -9 6 -13 5 -3 10 0 10 7 1 38 16 38 130 -6 134 -51 285 -98 303 -94 20 4 91 -13 112 -27 46 -29 350 -85 599 -110 166 -17 570 -19 671 -3 39 6 95 12 125 14 30 1 92 8 138 14 46 7 86 9 89 6 4 -3 -5 -6 -19 -6 -33 0 -63 -41 -45 -61 10 -11 9 -11 -4 -1 -9 6 -18 10 -20 7 -3 -2 -5 4 -5 15 0 10 4 17 7 14 4 -2 11 1 15 7 5 9 -1 10 -22 5 -16 -4 -42 -7 -59 -7 -29 1 -29 0 -11 -14 11 -8 15 -15 9 -15 -7 0 -15 5 -19 11 -3 6 -17 9 -30 6 -14 -2 -21 0 -17 6 4 7 -9 7 -38 2 -120 -21 -125 -22 -97 -24 28 -1 30 -9 19 -70 -1 -2 -8 3 -17 10 -22 18 -44 20 -44 4 0 -8 -7 -11 -20 -8 -11 3 -17 9 -14 14 3 5 1 9 -4 9 -6 0 -12 -7 -16 -15 -3 -8 -13 -15 -21 -15 -10 0 -13 5 -9 13 4 7 2 7 -7 -2 -11 -10 -11 -15 -1 -18 20 -7 14 -19 -10 -20 -13 0 -18 1 -12 3 22 9 3 44 -22 42 -23 -2 -31 -12 -16 -21 4 -2 2 -3 -4 -1 -6 1 -17 -2 -23 -7 -8 -6 -8 -5 -1 3 6 7 10 19 10 28 0 9 -6 5 -18 -11 -13 -21 -20 -24 -29 -14 -7 7 -8 17 -2 26 7 11 9 10 9 -4 0 -11 5 -15 11 -11 13 7 -5 29 -24 29 -7 0 -12 5 -12 12 0 6 -3 14 -6 18 -4 3 -6 -5 -5 -17 1 -18 -4 -22 -20 -20 -16 2 -20 -2 -19 -20 1 -13 8 -22 14 -20 9 2 9 -3 0 -20 -11 -21 -11 -22 4 -9 19 15 23 1 5 -17 -17 -17 -28 -15 -28 6 0 14 -2 15 -10 2 -7 -11 -10 -11 -10 -2 0 7 -5 10 -10 7 -17 -10 -50 5 -51 23 0 13 -3 11 -11 -5 -14 -29 -28 -29 -29 0 l-2 22 -4 -23 c-2 -12 -8 -20 -13 -17 -4 3 -6 14 -3 25 4 15 2 19 -10 15 -22 -9 -9 -44 19 -51 14 -4 31 -1 39 6 12 10 15 10 15 -3 0 -16 -49 -33 -59 -20 -9 12 -31 14 -31 3 0 -6 -13 -10 -30 -10 -23 0 -28 4 -23 16 5 15 3 15 -23 -1 -23 -13 -25 -14 -10 -1 19 15 19 16 -8 16 -15 0 -25 -4 -21 -10 3 -6 2 -10 -3 -10 -5 0 -9 11 -9 25 0 28 6 31 27 13 12 -11 12 -10 2 3 -12 16 -7 29 10 29 5 0 6 -4 3 -10 -3 -6 -2 -10 3 -10 5 0 21 -11 35 -24 15 -14 30 -20 38 -15 19 11 -9 42 -33 36 -13 -4 -18 0 -18 14 0 10 6 19 13 20 10 0 10 2 0 6 -7 2 -13 12 -13 20 0 12 3 13 13 4 8 -6 17 -8 20 -5 3 4 4 -5 1 -20 -3 -20 -1 -24 11 -20 8 3 13 10 10 14 -3 5 -1 11 5 15 5 3 10 1 10 -6 0 -7 3 -9 6 -6 4 3 16 0 28 -8 27 -20 32 -19 32 5 0 12 -5 19 -12 16 -7 -3 -14 3 -16 12 -4 15 5 17 70 19 117 3 98 13 -24 12 -60 0 -103 -3 -96 -6 6 -2 9 -9 6 -15 -3 -5 -15 -2 -27 9 -14 12 -18 13 -12 3 8 -13 6 -13 -8 -2 -18 15 -41 7 -31 -10 4 -7 2 -8 -5 -4 -6 4 -9 12 -6 17 7 10 4 11 -35 14 -14 2 -60 8 -103 14 -112 16 -126 15 -124 -9 1 -11 7 -20 14 -20 18 0 16 -19 -2 -26 -8 -4 -12 -10 -9 -15 3 -5 0 -9 -5 -9 -6 0 -11 5 -11 11 0 6 -8 8 -19 4 -11 -3 -22 -1 -26 5 -4 6 -3 10 2 9 18 -4 43 14 43 33 0 13 -4 17 -12 12 -9 -5 -9 -2 1 9 16 20 3 22 -23 2 -21 -16 -13 -37 12 -28 14 5 15 3 5 -7 -17 -19 -50 -22 -56 -7 -6 15 12 42 33 49 18 6 -82 28 -139 31 -23 1 -41 4 -41 8 0 4 -11 6 -25 5 -24 -1 -37 -16 -14 -16 6 0 9 -9 6 -20 -6 -25 7 -34 22 -16 8 10 9 16 1 21 -5 3 -10 12 -10 18 0 7 5 4 11 -6 7 -12 18 -16 37 -12 16 3 21 2 12 -2 -8 -5 -15 -14 -15 -22 0 -8 -7 -16 -15 -18 -13 -4 -13 -3 0 6 13 9 13 11 -2 11 -12 0 -18 -8 -18 -22 l0 -23 -20 25 c-11 14 -20 30 -20 37 0 14 -28 29 -50 27 -8 -1 -21 -2 -29 -3 -10 -1 -11 -4 -2 -14 6 -8 8 -17 4 -20 -3 -4 1 -7 10 -7 11 0 14 5 10 18 -5 13 -3 14 7 5 7 -6 19 -9 26 -6 8 3 14 0 14 -6 0 -6 -7 -11 -16 -11 -9 0 -12 -5 -8 -12 5 -8 2 -9 -11 -4 -13 5 -24 1 -35 -14 l-16 -21 -3 23 c-7 58 -5 83 6 81 6 -1 9 6 6 17 -4 13 -13 19 -29 18 -32 -3 -38 -24 -11 -44 l22 -16 -23 5 c-12 3 -20 1 -16 -4 8 -14 -12 -42 -32 -45 -18 -3 -18 -2 0 12 23 16 14 19 -15 3 -11 -6 -17 -15 -12 -22 5 -9 3 -9 -8 -1 -8 5 -27 16 -43 23 -26 10 -28 10 -17 -3 8 -10 9 -16 1 -21 -6 -4 -10 -3 -9 2 4 21 -2 24 -18 12 -16 -13 -17 -12 -4 4 12 16 12 20 -2 35 -10 9 -17 11 -17 5 0 -6 6 -14 13 -17 6 -3 3 -4 -8 -3 -12 1 -19 -3 -17 -10 1 -7 -2 -13 -8 -13 -14 0 -13 13 2 28 9 9 9 12 1 12 -7 0 -11 12 -10 28 1 18 -3 27 -13 27 -8 0 -18 5 -22 10 -5 6 -8 5 -8 -2 0 -7 -4 -13 -10 -13 -5 0 -7 7 -4 15 4 8 1 15 -6 15 -6 0 -10 -8 -8 -17 2 -13 13 -18 36 -18 20 0 32 -5 32 -13 0 -7 -4 -10 -10 -7 -6 4 -7 -1 -3 -11 4 -12 2 -15 -8 -12 -8 3 -13 10 -12 15 1 5 -7 9 -17 10 -14 1 -17 -4 -14 -22 3 -18 1 -23 -10 -19 -11 4 -13 12 -5 31 10 26 4 47 -12 38 -5 -4 -9 -1 -9 4 0 6 -7 11 -16 11 -10 0 -14 -5 -10 -16 3 -9 2 -12 -5 -9 -6 4 -17 -1 -25 -11 -9 -11 -12 -13 -8 -5 8 17 -18 35 -28 18 -4 -7 -6 -3 -6 10 2 19 4 20 25 6 22 -15 22 -14 18 24 -3 25 -2 33 4 24 5 -8 7 -20 4 -28 -3 -7 0 -13 5 -13 6 0 9 11 6 26 -4 23 -3 24 18 13 13 -7 27 -17 31 -23 6 -7 7 -4 3 7 -3 10 -6 30 -6 43 0 15 -6 24 -15 24 -8 0 -15 -5 -15 -11 0 -5 5 -7 10 -4 6 3 10 -1 10 -9 0 -9 -4 -16 -10 -16 -5 0 -10 5 -10 11 0 5 -4 8 -9 4 -5 -3 -13 0 -17 6 -4 7 -3 9 3 6 6 -4 13 0 16 8 7 16 -26 30 -44 19 -8 -4 -9 -3 -5 4 4 7 2 12 -3 12 -13 0 -13 -3 -5 -24 3 -9 10 -13 15 -10 5 3 6 -2 3 -10 -3 -9 -11 -16 -18 -16 -6 0 -5 -4 3 -9 11 -7 7 -13 -17 -25 -38 -20 -42 -20 -42 -1 0 8 9 15 20 15 11 0 20 5 20 11 0 5 -4 7 -10 4 -6 -3 -7 1 -4 9 4 10 1 16 -10 16 -10 0 -13 -6 -10 -15 8 -20 2 -19 -24 3 l-22 19 31 1 c36 1 54 12 20 12 -15 0 -20 4 -15 13 6 9 5 9 -7 0 -11 -9 -54 -12 -54 -3 0 1 -10 3 -23 6 -13 2 -21 1 -19 -3 3 -5 -1 -14 -9 -21 -8 -7 -14 -8 -14 -2 0 5 -7 10 -16 10 -8 0 -12 5 -8 11 5 8 1 8 -14 0 -18 -10 -20 -9 -17 11 7 35 27 40 47 10 l18 -27 0 28 c0 15 -5 27 -11 27 -5 0 -7 4 -4 10 4 6 11 5 19 -3 8 -6 12 -15 10 -19z m1113 -290 c-2 -7 -9 -12 -15 -11 -14 3 -24 -25 -12 -32 7 -4 6 -13 0 -26 -6 -10 -9 -19 -8 -20 2 0 12 -2 23 -4 11 -1 29 -6 40 -10 15 -5 16 -4 6 3 -15 11 -7 32 12 32 7 0 6 -4 -3 -10 -9 -6 -10 -10 -3 -10 18 0 26 19 11 25 -7 3 -24 6 -38 8 -31 5 -33 31 -3 35 18 3 21 0 17 -13 -6 -14 -1 -16 25 -12 17 3 33 1 37 -4 3 -5 -2 -9 -10 -9 -9 0 -13 -6 -10 -14 3 -8 0 -17 -5 -21 -6 -3 -9 -11 -5 -16 7 -12 -154 -1 -176 12 -8 5 -10 9 -4 9 7 0 14 9 17 21 4 16 2 19 -11 14 -9 -4 -23 -8 -30 -9 -7 -1 -11 -6 -10 -12 2 -5 6 -8 11 -6 4 1 7 -2 7 -8 0 -15 -10 -12 -60 16 -25 14 -37 23 -27 20 12 -4 17 -2 14 6 -2 7 -12 12 -21 12 -17 -2 -22 11 -7 21 12 7 41 -22 41 -41 0 -8 5 -12 10 -9 6 4 7 12 3 18 -5 9 -3 9 8 1 20 -16 41 -10 73 19 26 24 56 27 56 5 0 -6 -7 -4 -17 3 -15 13 -15 12 -2 -9 l14 -22 14 30 c14 28 48 44 38 18z"/>
<path d="M3550 3920 c-131 -12 -320 -54 -475 -104 -307 -101 -430 -210 -369 -328 14 -27 19 -30 51 -25 20 4 70 23 112 44 42 21 87 43 101 49 l25 12 -3 -131 c-3 -115 -1 -139 17 -187 56 -147 227 -286 389 -313 180 -31 456 106 529 263 50 108 53 294 7 414 -6 15 0 14 42 -7 36 -18 54 -23 67 -16 44 25 -2 81 -108 130 -179 84 -371 80 -770 -15 -104 -25 -201 -48 -215 -51 -42 -9 60 35 150 65 278 93 611 124 787 75 67 -19 93 -12 93 25 0 72 -207 120 -430 100z"/>
<path d="M5953 3107 c-37 -53 -124 -134 -187 -171 -104 -63 -175 -81 -311 -80 -106 0 -129 4 -193 28 -41 15 -76 25 -79 23 -10 -11 65 -56 127 -77 75 -26 229 -31 315 -11 150 36 311 171 361 304 10 28 -9 19 -33 -16z"/>
<path d="M2940 3112 c0 -20 95 -135 144 -175 178 -141 449 -177 633 -84 52 27 97 68 58 53 -284 -107 -545 -53 -775 160 -33 31 -60 52 -60 46z"/>
<path d="M4112 2328 c-45 -45 50 -115 188 -137 180 -30 438 8 503 73 9 10 17 28 17 42 0 33 -35 40 -91 16 -141 -61 -382 -63 -524 -6 -70 28 -77 28 -93 12z"/>
<path d="M4484 1091 c-79 -48 -84 -180 -10 -239 59 -46 137 -36 182 24 74 96 14 234 -101 234 -22 0 -54 -9 -71 -19z m108 -42 c11 -6 26 -26 34 -45 12 -29 12 -39 0 -68 -24 -58 -86 -75 -123 -33 -28 31 -34 65 -18 103 20 49 63 67 107 43z"/>
<path d="M2195 7799 c-66 -45 -152 -106 -192 -136 -72 -55 -72 -55 -55 -78 12 -16 18 -19 20 -10 2 8 10 11 18 8 8 -3 14 1 14 8 1 9 6 7 16 -6 15 -19 15 -19 8 9 -5 19 -2 31 7 37 10 6 11 9 2 9 -7 0 -13 7 -13 15 0 14 12 20 33 16 5 -1 6 3 3 8 -4 5 7 19 23 30 18 13 32 17 36 11 3 -5 14 -9 23 -9 15 1 15 2 0 6 -37 9 -16 22 31 19 30 -1 56 -9 66 -20 10 -9 20 -14 23 -11 3 3 -1 11 -10 18 -23 19 -30 47 -12 47 10 0 14 -6 11 -15 -4 -8 -3 -16 2 -19 4 -3 8 14 10 36 3 55 7 61 48 56 31 -4 34 -2 31 21 -2 13 -7 26 -13 28 -5 1 -64 -34 -130 -78z"/>
</g>
</svg>
